<?xml version="1.0" encoding="UTF-8" standalone="no" ?>
<!DOCTYPE svg PUBLIC "-//W3C//DTD SVG 1.1//EN" "http://www.w3.org/Graphics/SVG/1.1/DTD/svg11.dtd">
<svg xmlns="http://www.w3.org/2000/svg" xmlns:xlink="http://www.w3.org/1999/xlink" version="1.1" width="1080" height="1080" viewBox="0 0 1080 1080" xml:space="preserve">
<desc>Created with Fabric.js 5.2.4</desc>
<defs>
</defs>
<g transform="matrix(1 0 0 1 540 540)" id="a5b125db-f979-489b-b564-58dc2c0267d8"  >
<rect style="stroke: none; stroke-width: 1; stroke-dasharray: none; stroke-linecap: butt; stroke-dashoffset: 0; stroke-linejoin: miter; stroke-miterlimit: 4; fill: rgb(255,255,255); fill-rule: nonzero; opacity: 1; visibility: hidden;" vector-effect="non-scaling-stroke"  x="-540" y="-540" rx="0" ry="0" width="1080" height="1080" />
</g>
<g transform="matrix(1 0 0 1 540 540)" id="528bc855-ab6a-43f1-a38f-acd97c542489"  >
</g>
<g transform="matrix(1 0 0 1 540 423.62)"  >
<path style="stroke: none; stroke-width: 1; stroke-dasharray: none; stroke-linecap: butt; stroke-dashoffset: 0; stroke-linejoin: miter; stroke-miterlimit: 4; fill: rgb(7,7,7); fill-rule: nonzero; opacity: 1;" vector-effect="non-scaling-stroke"  transform=" translate(-559.5, -257.1)" d="M 1 240.375 C 15.441878 240 29.883757 240 44.816147 240 C 44.816147 237.534256 44.816147 235.748886 44.816147 233.963516 C 44.816151 203.639313 45.259007 173.306458 44.666416 142.993835 C 44.244453 121.409195 61.0275 106.605545 79.866501 107.664406 C 93.652122 108.43924 107.516319 107.816147 121.34549 107.816147 C 122.969757 107.816147 124.594017 107.816147 126.491943 107.816147 C 127.611824 94.422104 132.420654 82.998207 140.954346 73.166138 C 147.297668 65.857719 154.992752 60.537884 164.039337 57.112446 C 189.664795 47.409523 203.218338 28.072315 208.035858 1.408685 C 209.066666 1 210.133347 1 211.498489 1.380418 C 206.481384 30.854078 190.785721 50.903309 162.632874 61.877258 C 143.945602 69.161537 133.758881 84.554428 130.38295 104.361153 C 129.8508 107.483261 130.718689 108.406708 134.067719 107.71833 C 135.273529 107.80011 136.088272 107.751587 137.303528 107.772278 C 138.715134 106.866562 140.408646 106.028267 140.635284 104.896271 C 144.213318 87.026077 155.189728 76.094124 171.649506 68.9562 C 201.335358 56.082687 218.74649 33.372093 223 1 C 224.066666 1 225.133347 1 226.600006 1 C 224.784393 14.746225 220.838409 27.872347 212.929291 39.526665 C 202.56015 54.805916 188.981186 66.21286 171.71521 72.953194 C 157.307648 78.577652 148.305771 88.843262 144.462448 103.734932 C 144.177246 104.839958 144.138245 106.008537 143.894852 107.815132 C 145.88089 107.815132 147.613785 107.815132 149.34668 107.815132 C 185.002579 107.815132 220.658493 107.806206 256.314392 107.818657 C 276.056122 107.825546 289.955627 121.608513 289.996216 141.367661 C 290.059479 172.191559 290.012939 203.015686 290.01297 233.839706 C 290.01297 235.646759 290.01297 237.453812 290.01297 239.536804 C 299.391602 239.536804 308.461823 239.536804 318.150085 239.536804 C 318.150085 237.062973 318.150116 234.624939 318.150116 232.18692 C 318.150116 219.024231 318.149902 205.861542 318.150146 192.698853 C 318.150513 171.45784 331.139648 157.700912 352.349762 157.556351 C 393.002258 157.279297 433.658997 157.305359 474.311951 157.545914 C 495.221741 157.669617 508.387665 171.337891 508.507477 192.271469 C 508.597015 207.915512 508.525116 223.560471 508.525116 239.508728 C 604.085938 239.508728 699.288513 239.508728 794.987061 239.508728 C 794.987061 229.649475 794.97998 219.870575 794.988525 210.09166 C 795.00592 190.157578 808.961548 176.1689 828.897644 176.155624 C 860.054932 176.134872 891.212158 176.125961 922.369446 176.15892 C 942.01416 176.179703 956.001099 190.218811 956.011963 209.832077 C 956.017395 219.638519 956.012939 229.444946 956.012939 239.832214 C 1009.900391 239.832214 1063.488159 239.832214 1117.537842 239.916107 C 1118 240.75 1118 241.5 1117.536621 242.701111 C 1063.497314 243.152222 1009.921326 243.152222 956.173706 243.152222 C 956.173706 252.472321 956.173706 261.245026 956.173706 270.50647 C 958.100342 270.50647 959.898865 270.50647 961.697327 270.50647 C 1012.000488 270.50647 1062.303711 270.501404 1112.606812 270.527283 C 1114.404663 270.528229 1116.202271 270.83548 1118 271 C 1118 271.75 1118 272.5 1118 273.625 C 1064.22229 274 1010.44458 274 956.012878 274 C 956.012878 284.887421 955.974426 295.634247 956.025452 306.380646 C 956.063293 314.363129 953.546204 321.397522 948.404785 327.472473 C 942.157166 334.854584 934.171387 338.809692 924.493896 338.980011 C 915.678284 339.135162 906.857788 339.012878 897.49231 339.012878 C 897.49231 341.024078 897.49231 342.81131 897.49231 344.598572 C 897.492249 383.233429 897.565735 421.868652 897.382507 460.502655 C 897.363403 464.51825 896.410583 468.769287 894.877319 472.493744 C 889.885925 484.618683 884.470032 496.570648 879.091614 508.532593 C 878.319458 510.250061 876.855042 511.65625 875.210144 513.202759 C 873.997559 512.640503 873.28595 512.082153 872.57428 511.523743 C 867.097534 499.051361 861.733826 486.527557 856.092163 474.130219 C 853.60968 468.675018 852.936768 463.129761 852.959351 457.194366 C 853.108337 418.033936 853.036316 378.87262 853.036316 339.012939 C 844.300476 339.012939 835.544006 339.070038 826.788452 339.000824 C 809.639343 338.865265 795.311584 324.737366 795.013184 307.591553 C 794.868225 299.260742 794.987305 290.925323 794.987 282.59201 C 794.986877 279.940338 794.987061 277.288666 794.987061 274.3255 C 699.58313 274.3255 604.348389 274.3255 508.525116 274.3255 C 508.525116 284.86615 508.511322 295.448395 508.529938 306.030609 C 508.542145 312.959351 507.566071 319.651581 503.810333 325.655975 C 496.805603 336.854462 486.416595 341.582764 473.48291 341.537964 C 457.834625 341.483765 442.186005 341.525085 425.849884 341.525085 C 425.849884 348.430023 426.094421 355.066833 425.782745 361.677399 C 425.455994 368.607788 424.582794 375.511963 423.98114 382.430389 C 423.881744 383.573578 423.731171 384.779755 423.973633 385.875031 C 427.256561 400.704498 426.858521 415.530914 424.146667 430.382416 C 423.881226 431.83606 423.723297 433.427612 424.023041 434.848022 C 427.18988 449.854736 426.849426 464.816589 424.191132 479.871368 C 423.642456 482.978638 425.09729 486.390442 425.110718 489.664032 C 425.119202 491.731537 424.808258 494.384857 423.54306 495.780243 C 413.801666 506.523865 413.175323 506.550873 403.428711 495.839325 C 402.01474 494.28537 401.918121 491.243713 401.803345 488.86203 C 401.616394 484.982727 401.966339 481.080414 402.003113 477.186981 C 402.128143 463.951355 402.20932 450.715302 402.322357 437.479584 C 402.343231 435.036194 402.835663 432.524017 402.427246 430.161743 C 400.024811 416.265106 400.167114 402.390656 402.296692 388.494995 C 402.546875 386.862549 403.341644 385.073578 402.939087 383.618591 C 399.354431 370.662781 401.518402 357.447998 400.929688 344.365906 C 400.89325 343.556427 400.784119 342.750183 400.669922 341.525146 C 391.892059 341.525146 383.268951 341.569763 374.646545 341.512848 C 365.65329 341.453491 356.631836 341.712189 347.673981 341.09201 C 330.971008 339.935669 318.279175 325.929718 318.161621 309.082581 C 318.08255 297.750397 318.112579 286.417419 318.088867 275.084808 C 318.088531 274.929535 318.023621 274.774353 317.92099 274.31604 C 308.90213 274.31604 299.804779 274.31604 290.299103 274.31604 C 290.21637 275.33902 290.028198 276.595947 290.026245 277.853119 C 290.005005 291.519745 290.04718 305.186493 290.004852 318.853027 C 289.942871 338.869019 275.998688 352.829742 256.100189 352.847839 C 243.935654 352.858887 231.771072 352.849884 218.999237 352.849884 C 218.999237 370.29187 218.999237 387.658447 218.999237 405.345764 C 207.771683 405.345764 197.143326 405.345764 186.129745 405.345764 C 186.129745 416.261414 186.129745 426.861633 186.129745 437.461853 C 185.720932 437.283539 185.312119 437.105194 184.90329 436.926849 C 183.310303 439.09021 181.277451 441.055908 180.20079 443.451324 C 175.643188 453.591339 171.369965 463.859161 166.497482 474.335571 C 165.054077 474.737457 164.106003 474.884064 163.157898 475.03067 C 158.410034 464.056396 153.735992 453.04895 148.841156 442.140625 C 148.03154 440.336365 146.25618 438.965454 144.927124 437.394257 C 144.543991 437.58493 144.160858 437.775604 143.777725 437.966278 C 143.777725 427.355682 143.777725 416.745056 143.777725 405.610107 C 134.511856 405.610107 125.599731 405.610107 116.267975 405.610107 C 116.267975 387.849823 116.267975 370.614105 116.267975 352.849884 C 104.072517 352.849884 92.302582 352.849915 80.532646 352.849884 C 58.089916 352.849792 44.84671 339.647217 44.818493 317.217499 C 44.80069 303.06665 44.81517 288.915741 44.81517 274.012085 C 30.421217 274.012085 16.179232 274.012085 1.468624 274.006042 C 1 273.25 1 272.5 1.426406 271.163086 C 16.104908 270.576202 30.357004 270.576202 44.555542 270.576202 C 44.555542 261.09375 44.555542 252.344452 44.555542 243 C 29.853382 243 15.426691 243 1 243 C 1 242.25 1 241.5 1 240.375 M 457.499939 161.017746 C 453.666992 161.017731 449.834015 161.017715 446.001068 161.017731 C 414.837585 161.017899 383.673828 160.938736 352.510712 161.048203 C 334.007355 161.113205 321.873169 173.437988 321.870941 191.819534 C 321.866241 230.482254 321.860199 269.144958 321.87381 307.807678 C 321.879791 324.795441 333.791168 337.748413 350.634827 337.866638 C 392.460815 338.160187 434.291443 338.151001 476.117676 337.877472 C 492.173126 337.772522 504.756165 325.230774 504.873108 309.189148 C 505.163452 269.362183 505.132751 229.530548 504.8703 189.703156 C 504.776672 175.494034 494.999237 164.144928 480.91156 161.846619 C 473.590759 160.652298 465.979767 161.236801 457.499939 161.017746 M 48.163647 206.5 C 48.163635 242.98851 48.429989 279.479675 48.066696 315.964539 C 47.83786 338.946228 64.143509 349.565186 81.050125 349.373657 C 138.857666 348.718811 196.681274 348.740875 254.4897 349.356323 C 271.73053 349.539886 286.76178 337.089264 286.511597 317.198486 C 285.952148 272.719635 286.336731 228.228943 286.336548 183.743073 C 286.336517 169.580902 286.445648 155.417664 286.307465 141.256836 C 286.133545 123.433853 273.729401 111.179787 255.968323 111.172615 C 196.987061 111.148811 138.005783 111.171417 79.024521 111.153786 C 71.615433 111.151573 64.869614 113.076767 59.082405 117.803169 C 50.950226 124.444717 48.162758 133.40065 48.163349 143.519684 C 48.164558 164.179794 48.163769 184.83989 48.163647 206.5 M 952.409241 211.5401 C 952.388306 191.587158 940.707825 179.861313 920.844727 179.85994 C 890.368347 179.857849 859.891968 179.851273 829.415588 179.862366 C 810.665649 179.869186 798.610291 191.956604 798.596985 210.800812 C 798.57489 242.109863 798.576172 273.418945 798.596497 304.727997 C 798.608521 323.293701 810.675415 335.393951 829.177246 335.404327 C 859.986694 335.4216 890.796204 335.418427 921.605652 335.405548 C 940.459167 335.397675 952.400085 323.395874 952.406372 304.457428 C 952.416565 273.814514 952.409363 243.171616 952.409241 211.5401 M 612.499634 270.507996 C 673.246399 270.507996 733.993164 270.507996 794.619385 270.507996 C 794.619385 261.092438 794.619385 252.202911 794.619385 243.343414 C 699.184998 243.343414 604.131531 243.343414 508.826477 243.343414 C 508.826477 252.39798 508.826477 261.274414 508.826477 270.507965 C 543.27301 270.507965 577.386292 270.507965 612.499634 270.507996 M 146.5 353.020752 C 137.729065 353.020752 128.95813 353.020752 120.232025 353.020752 C 120.232025 369.656281 120.232025 385.696045 120.232025 401.6828 C 152.000015 401.6828 183.401169 401.6828 214.768097 401.6828 C 214.768097 385.343903 214.768097 369.304169 214.768097 353.020752 C 192.102066 353.020752 169.801025 353.020752 146.5 353.020752 M 176.416916 434.996033 C 178.204071 434.996033 179.991241 434.996033 181.878479 434.996033 C 181.878479 424.990814 181.878479 415.440186 181.878479 405.854858 C 170.194077 405.854858 158.796097 405.854858 147.391327 405.854858 C 147.391327 415.651428 147.391327 425.088013 147.391327 434.996033 C 156.882431 434.996033 166.159424 434.996033 176.416916 434.996033 M 858.212463 446.498169 C 858.212463 452.102814 858.212463 457.707458 858.212463 463.757751 C 861.167786 463.455872 863.401611 463.227661 865.590942 463.003998 C 865.590942 421.474792 865.590942 380.407104 865.590942 339.318665 C 863.04834 339.318665 860.816162 339.318665 858.212585 339.318665 C 858.212585 374.935486 858.212585 410.217255 858.212463 446.498169 M 879.28302 431.500031 C 879.28302 400.774323 879.28302 370.048584 879.28302 339.330322 C 876.186462 339.330322 873.784851 339.330322 871.388672 339.330322 C 871.388672 380.68576 871.388672 421.721191 871.388672 462.741364 C 874.124939 462.741364 876.529175 462.741364 879.283142 462.741364 C 879.283142 452.433411 879.283142 442.466736 879.28302 431.500031 M 884.929077 412.5 C 884.929077 429.273743 884.929077 446.047455 884.929077 462.843018 C 887.591309 462.843018 889.654053 462.843018 891.773804 462.843018 C 891.773804 421.463196 891.773804 380.399628 891.773804 339.313477 C 889.403076 339.313477 887.333984 339.313477 884.929077 339.313477 C 884.929077 363.570679 884.929077 387.535339 884.929077 412.5 M 290.000397 253.53093 C 290.000397 259.108307 290.000397 264.685699 290.000397 270.168518 C 299.765839 270.168518 308.835815 270.168518 317.887268 270.168518 C 317.887268 261.069672 317.887268 252.311707 317.887268 243.414886 C 308.533783 243.414886 299.461029 243.414886 290.000397 243.414886 C 290.000397 246.615814 290.000397 249.581146 290.000397 253.53093 M 414.908081 370.381927 C 422.982819 362.567871 424.165558 352.925354 422.307159 342.371796 C 416.274658 342.371796 410.241913 342.371796 404.963776 342.371796 C 404.963776 355.488037 404.963776 368.256378 404.963776 381.02475 C 405.454742 381.153107 405.945709 381.281464 406.436676 381.409821 C 409.106812 377.916687 411.776978 374.423523 414.908081 370.381927 M 862.303955 475.103577 C 863.982422 478.897614 865.588379 482.725922 867.360168 486.475861 C 869.09552 490.14859 880.202332 491.615112 882.071594 488.140839 C 885.326843 482.090851 887.853088 475.648621 890.825378 469.059601 C 880.088501 469.059601 870.181091 469.059601 859.86853 469.059601 C 860.675659 471.057434 861.346436 472.717834 862.303955 475.103577 M 152.652878 441.66452 C 156.56604 450.861481 160.479202 460.058441 164.806625 470.229034 C 169.519745 459.143463 173.811356 449.049286 178.321045 438.442169 C 169.889359 438.442169 162.405014 438.425842 154.920853 438.455292 C 153.332397 438.461548 151.182236 438.040314 152.652878 441.66452 M 405.046326 477.33432 C 405.323364 478.061859 405.600372 478.789398 406.208191 480.385681 C 411.176361 473.515533 415.972504 467.409821 420.184082 460.924469 C 425.297302 453.050842 422.79895 444.786804 421.129059 435.324615 C 416.616669 441.406952 413.284546 446.600922 409.251373 451.177124 C 402.48822 458.850891 403.319366 467.529297 405.046326 477.33432 M 404.089569 424.004669 C 404.555847 426.029205 405.022125 428.053711 405.587616 430.509064 C 406.466827 429.820038 407.051697 429.52771 407.404083 429.060181 C 411.596039 423.49826 415.817047 417.95636 419.901611 412.315948 C 423.877747 406.825256 424.099243 393.650299 420.365204 387.454193 C 412.728333 398.394379 400.930328 407.294952 404.089569 424.004669 M 414.973969 492.596252 C 411.399628 497.64679 411.399628 497.64679 412.854126 500.924377 C 424.448639 491.286896 424.240112 491.077362 420.485382 485.288116 C 418.757202 487.559143 417.070709 489.775391 414.973969 492.596252 M 871.474792 495.963043 C 872.643921 498.596191 873.812988 501.22934 875.329346 504.644745 C 876.859558 500.881134 877.987061 498.108124 879.392395 494.65155 C 876.132324 494.873413 873.854614 495.028442 871.474792 495.963043 z" stroke-linecap="round" />
</g>
<g transform="matrix(1 0 0 1 1017.58 423.39)"  >
<path style="stroke: none; stroke-width: 1; stroke-dasharray: none; stroke-linecap: butt; stroke-dashoffset: 0; stroke-linejoin: miter; stroke-miterlimit: 4; fill: rgb(248,248,248); fill-rule: nonzero; opacity: 1;" vector-effect="non-scaling-stroke"  transform=" translate(-1037.09, -256.87)" d="M 1118 270.531342 C 1116.202271 270.83548 1114.404663 270.528229 1112.606812 270.527283 C 1062.303711 270.501404 1012.000488 270.50647 961.697327 270.50647 C 959.898865 270.50647 958.100342 270.50647 956.173706 270.50647 C 956.173706 261.245026 956.173706 252.472321 956.173706 243.152222 C 1009.921326 243.152222 1063.497314 243.152222 1117.536621 243.076111 C 1118 252.020889 1118 261.041779 1118 270.531342 z" stroke-linecap="round" />
</g>
<g transform="matrix(1 0 0 1 3.28 423.41)"  >
<path style="stroke: none; stroke-width: 1; stroke-dasharray: none; stroke-linecap: butt; stroke-dashoffset: 0; stroke-linejoin: miter; stroke-miterlimit: 4; fill: rgb(247,247,247); fill-rule: nonzero; opacity: 1;" vector-effect="non-scaling-stroke"  transform=" translate(-22.78, -256.89)" d="M 1 243.468658 C 15.426691 243 29.853382 243 44.555542 243 C 44.555542 252.344452 44.555542 261.09375 44.555542 270.576202 C 30.357004 270.576202 16.104908 270.576202 1.426406 270.788086 C 1 261.979095 1 252.958206 1 243.468658 z" stroke-linecap="round" />
</g>
<g transform="matrix(1 0 0 1 153.87 221.01)"  >
<path style="stroke: none; stroke-width: 1; stroke-dasharray: none; stroke-linecap: butt; stroke-dashoffset: 0; stroke-linejoin: miter; stroke-miterlimit: 4; fill: rgb(245,240,242); fill-rule: nonzero; opacity: 1;" vector-effect="non-scaling-stroke"  transform=" translate(-173.36, -54.48)" d="M 133.676636 107.588028 C 130.718689 108.406708 129.8508 107.483261 130.38295 104.361153 C 133.758881 84.554428 143.945602 69.161537 162.632874 61.877258 C 190.785721 50.903309 206.481384 30.854078 211.898483 1.380418 C 213.388885 1 214.777786 1 216.489594 1.390977 C 214.627472 9.407358 213.309494 17.422607 210.090118 24.58296 C 201.432983 43.837612 186.611649 56.839863 166.759644 64.014793 C 147.084366 71.125854 134.065887 88.202042 133.676636 107.588028 z" stroke-linecap="round" />
</g>
<g transform="matrix(1 0 0 1 157.36 220.96)"  >
<path style="stroke: none; stroke-width: 1; stroke-dasharray: none; stroke-linecap: butt; stroke-dashoffset: 0; stroke-linejoin: miter; stroke-miterlimit: 4; fill: rgb(202,64,109); fill-rule: nonzero; opacity: 1;" vector-effect="non-scaling-stroke"  transform=" translate(-176.86, -54.43)" d="M 134.067719 107.71833 C 134.065887 88.202042 147.084366 71.125854 166.759644 64.014793 C 186.611649 56.839863 201.432983 43.837612 210.090118 24.58296 C 213.309494 17.422607 214.627472 9.407358 216.90625 1.390977 C 217.75 1 218.5 1 219.655579 1.424307 C 219.488022 5.279504 219.184219 8.781569 218.299301 12.130054 C 211.043945 39.583767 193.676895 57.808311 167.248398 67.662041 C 149.555679 74.258698 137.719299 89.859665 136.903015 107.703064 C 136.088272 107.751587 135.273529 107.80011 134.067719 107.71833 z" stroke-linecap="round" />
</g>
<g transform="matrix(1 0 0 1 160.46 220.91)"  >
<path style="stroke: none; stroke-width: 1; stroke-dasharray: none; stroke-linecap: butt; stroke-dashoffset: 0; stroke-linejoin: miter; stroke-miterlimit: 4; fill: rgb(242,235,237); fill-rule: nonzero; opacity: 1;" vector-effect="non-scaling-stroke"  transform=" translate(-179.96, -54.39)" d="M 137.303528 107.772278 C 137.719299 89.859665 149.555679 74.258698 167.248398 67.662041 C 193.676895 57.808311 211.043945 39.583767 218.299301 12.130054 C 219.184219 8.781569 219.488022 5.279504 220.030579 1.424307 C 220.75 1 221.5 1 222.625 1 C 218.74649 33.372093 201.335358 56.082687 171.649506 68.9562 C 155.189728 76.094124 144.213318 87.026077 140.635284 104.896271 C 140.408646 106.028267 138.715134 106.866562 137.303528 107.772278 z" stroke-linecap="round" />
</g>
<g transform="matrix(1 0 0 1 111.9 738.97)"  >
<path style="stroke: none; stroke-width: 1; stroke-dasharray: none; stroke-linecap: butt; stroke-dashoffset: 0; stroke-linejoin: miter; stroke-miterlimit: 4; fill: rgb(200,42,102); fill-rule: nonzero; opacity: 1;" vector-effect="non-scaling-stroke"  transform=" translate(-131.4, -572.45)" d="M 163.170258 475.433044 C 164.106003 474.884064 165.054077 474.737457 166.357925 474.660217 C 168.380783 481.831543 168.380783 481.831665 175.703018 481.831757 C 187.36824 481.831879 199.035568 481.718719 210.696686 481.937408 C 212.769577 481.976318 215.268661 482.890167 216.798431 484.261688 C 223.987793 490.707336 230.961014 497.399017 237.866943 504.150635 C 238.917068 505.177307 239.768997 506.978912 239.77063 508.423157 C 239.830643 561.914551 239.779678 615.406006 239.73587 668.897461 C 239.735748 669.045349 239.6194 669.193115 239.210098 670.168274 C 235.668686 670.168274 231.757935 670.168274 227.847183 670.168274 C 219.848175 670.168274 211.843231 670.335938 203.854233 670.053162 C 201.794037 669.980286 199.341034 668.970276 197.827957 667.570007 C 191.472473 661.688538 185.24054 655.649353 179.335526 649.320618 C 177.633179 647.496216 176.353058 644.532227 176.287292 642.053345 C 175.974442 630.258667 176.147308 618.451111 175.26413 606.422791 C 173.170273 612.442932 171.047729 618.453247 168.988342 624.485168 C 164.207687 638.487793 159.372452 652.4729 154.764694 666.53241 C 153.809189 669.447937 152.372925 670.308044 149.413788 670.23645 C 141.252914 670.03894 133.076187 670.364624 124.923912 670.034485 C 122.801414 669.948486 120.369255 668.631042 118.747192 667.148376 C 116.316498 664.926697 114.706596 661.824646 112.346474 659.505127 C 99.217819 646.602722 96.3424 628.852356 90.022751 612.735229 C 88.466568 608.766418 87.12915 604.711792 84.710831 600.811523 C 84.710831 623.761597 84.710831 646.711609 84.710831 670.148438 C 72.107468 670.148438 60.150013 670.217834 48.19611 670.043457 C 46.972305 670.025574 45.601677 668.719116 44.584797 667.719971 C 38.166313 661.413391 31.737272 655.111511 25.536915 648.593811 C 24.212641 647.201721 23.09971 644.929443 23.095278 643.059814 C 22.969643 590.066772 22.998262 537.073303 23.009573 484.079926 C 23.009678 483.592377 23.115952 483.104828 23.227318 482.147308 C 24.589712 482.044922 26.005962 481.847534 27.422449 481.845825 C 44.920246 481.824615 62.41898 481.747772 79.914795 481.935303 C 82.175575 481.959534 84.81292 482.879059 86.607201 484.255524 C 95.063072 490.742218 103.393135 497.406433 111.51532 504.304901 C 113.504326 505.994202 115.154701 508.618805 115.914268 511.129944 C 120.101395 524.973022 123.960663 538.915161 127.946014 552.819458 C 128.212967 553.750854 128.592178 554.650146 129.324234 556.696655 C 132.120911 548.266663 134.598343 540.871643 137.027725 533.460876 C 141.999084 518.295959 147.187836 503.195312 151.76001 487.910522 C 153.22673 483.007233 155.360229 480.889465 160.390503 481.79364 C 161.499817 481.993042 162.695145 481.713928 164.62056 481.615997 C 164.098755 479.518372 163.640671 477.67688 163.170258 475.433044 M 137.830719 629.25592 C 150.033905 594.601196 162.252518 559.951965 174.412308 525.281982 C 175.434204 522.368408 176.399231 519.873718 180.673981 521.922424 C 180.673981 562.048157 180.673981 602.296265 180.673981 642.671631 C 191.056168 642.671631 200.953735 642.671631 210.837189 642.671631 C 210.837189 590.440369 210.837189 538.530151 210.837189 486.174072 C 193.4021 486.174072 176.274338 486.107635 159.150436 486.333923 C 158.088638 486.347961 156.567093 488.49881 156.08667 489.932648 C 150.645218 506.173401 145.367294 522.468933 140.041656 538.748474 C 133.251511 559.504761 126.457756 580.259888 119.39286 601.848816 C 118.478348 599.478027 117.81794 597.974609 117.311005 596.421204 C 105.85965 561.330933 94.359489 526.256287 83.081474 491.110321 C 81.852898 487.281738 80.254311 485.970276 76.157448 486.05368 C 61.831215 486.345367 47.495403 486.166718 33.163231 486.166718 C 31.422117 486.166718 29.681004 486.166718 27.956509 486.166718 C 27.956509 538.882263 27.956509 590.769226 27.956509 642.596313 C 38.215302 642.596313 48.100216 642.596313 58.415112 642.596313 C 58.415112 601.948792 58.415112 561.695862 58.415112 521.651245 C 62.627369 520.027893 63.267159 522.686951 64.198418 525.341675 C 76.416313 560.171509 88.685005 594.983521 100.953285 629.795715 C 102.442978 634.022766 102.84317 639.916626 105.847847 641.97876 C 109.079063 644.196228 114.784523 642.942688 119.411636 642.966797 C 133.081711 643.037964 133.081955 642.992188 137.830719 629.25592 z" stroke-linecap="round" />
</g>
<g transform="matrix(1 0 0 1 412.08 745.94)"  >
<path style="stroke: none; stroke-width: 1; stroke-dasharray: none; stroke-linecap: butt; stroke-dashoffset: 0; stroke-linejoin: miter; stroke-miterlimit: 4; fill: rgb(4,155,201); fill-rule: nonzero; opacity: 1;" vector-effect="non-scaling-stroke"  transform=" translate(-431.58, -579.41)" d="M 515.005676 519.089783 C 515.005676 570.838501 515.005676 622.100464 515.005676 673.833801 C 502.043549 673.833801 489.591919 673.91333 477.14447 673.720764 C 475.775757 673.699585 474.268555 672.29657 473.10022 671.232849 C 458.996521 658.391785 446.810059 644.007141 436.769196 627.700562 C 429.193604 615.397705 420.756653 603.625366 411.71936 591.706787 C 411.71936 618.948853 411.71936 646.190918 411.71936 673.841736 C 398.606781 673.841736 386.310272 673.91687 374.017487 673.737915 C 372.622955 673.717651 371.008057 672.515381 369.905487 671.44043 C 363.345551 665.044983 356.828613 658.600159 350.493896 651.983582 C 349.267181 650.702271 348.251587 648.5896 348.247955 646.858032 C 348.136444 593.713135 348.162933 540.567993 348.178131 487.422852 C 348.178284 486.934814 348.314728 486.446808 348.507935 485.152008 C 351.158905 485.152008 353.910065 485.152008 356.661194 485.152008 C 364.158173 485.152008 371.687561 485.586212 379.142914 485.029083 C 386.502838 484.479065 391.354187 487.91153 395.902008 492.954529 C 401.456512 499.113739 407.320801 504.993622 413.121582 511.068115 C 415.462128 508.884491 417.384155 507.091339 420.304382 504.366913 C 424.183807 508.437225 428.312317 511.962067 431.437012 516.223083 C 437.140167 524.000305 442.23938 532.219788 447.615021 540.238342 C 448.487488 541.539673 449.486053 542.756409 451.393433 543.743042 C 451.393433 524.391174 451.393433 505.039337 451.393433 485.177307 C 464.120483 485.177307 476.230011 485.125153 488.337311 485.265442 C 489.437256 485.278137 490.69635 486.351593 491.587677 487.230469 C 498.704498 494.248077 506.077423 501.053101 512.621338 508.576111 C 514.618713 510.872345 514.276428 515.203674 515.005676 519.089783 M 451.016663 640.535645 C 453.168396 645.755981 457.107666 647.354126 462.531067 646.642395 C 465.47934 646.255554 468.520111 646.573425 471.519165 646.573425 C 476.439392 646.573425 481.359619 646.573425 486.14447 646.573425 C 486.14447 593.847107 486.14447 541.984924 486.14447 490.103363 C 475.953735 490.103363 466.194397 490.103363 456.001709 490.103363 C 456.001709 525.23407 456.001709 560.104309 456.001709 596.326599 C 454.446228 594.052368 453.634613 592.883972 452.841431 591.703308 C 430.841248 558.956543 408.854553 526.200684 386.804504 493.487579 C 385.857056 492.08197 384.355377 490.068787 383.06369 490.032013 C 372.986298 489.745087 362.897034 489.873322 352.826355 489.873322 C 352.826355 542.430786 352.826355 594.306152 352.826355 646.167725 C 363.109985 646.167725 372.988434 646.167725 383.255371 646.167725 C 383.255371 611.037231 383.255371 576.310303 383.255371 541.583313 C 383.592407 541.445557 383.929413 541.307739 384.266449 541.169922 C 406.382782 574.090393 428.499084 607.010925 451.016663 640.535645 z" stroke-linecap="round" />
</g>
<g transform="matrix(1 0 0 1 671.45 747.35)"  >
<path style="stroke: none; stroke-width: 1; stroke-dasharray: none; stroke-linecap: butt; stroke-dashoffset: 0; stroke-linejoin: miter; stroke-miterlimit: 4; fill: rgb(236,155,51); fill-rule: nonzero; opacity: 1;" vector-effect="non-scaling-stroke"  transform=" translate(-690.95, -580.82)" d="M 667 486.140594 C 688.666138 486.140625 709.832886 486.219238 730.997803 486.062103 C 734.471924 486.036316 736.901489 487.073883 739.259827 489.556 C 744.997681 495.595093 751.15863 501.237762 756.783813 507.374908 C 758.475708 509.220795 759.775208 512.140137 759.862854 514.616882 C 760.209961 524.428894 760.005493 534.260498 760.005493 544.682739 C 735.039368 544.682739 710.317993 544.682739 685.304138 544.682739 C 685.304138 548.349243 685.304138 551.423279 685.304138 555.140503 C 695.827637 555.140503 706.270203 555.35791 716.696594 555.042053 C 721.385254 554.899963 724.820312 556.088928 728.030945 559.660767 C 733.371155 565.60199 739.29303 571.017517 744.88147 576.740906 C 745.991211 577.877563 747.45282 579.388611 747.479126 580.751587 C 747.691162 591.700439 747.597778 602.655334 747.597778 613.958496 C 726.905762 613.958496 706.790833 613.958496 686.219727 613.958496 C 686.219727 634.231873 686.219727 654.154236 686.219727 674.859497 C 680.530273 674.859497 675.268005 674.878113 670.005859 674.855103 C 662.175903 674.820984 653.438904 676.914001 646.767883 674.10791 C 639.914307 671.224976 635.394104 663.165344 629.268005 658.074829 C 623.492004 653.275269 621.776978 647.813599 621.826111 640.392029 C 622.151672 591.228699 621.994446 542.062195 621.994446 492.896759 C 621.994446 490.905121 621.994507 488.913452 621.994507 486.140533 C 636.987305 486.140533 651.743652 486.140533 667 486.140594 M 634.553162 490.85437 C 631.935303 490.85437 629.317505 490.85437 626.449036 490.85437 C 626.449036 543.265808 626.449036 595.125488 626.449036 647.628235 C 635.354065 647.628235 643.977173 647.455322 652.587769 647.706909 C 656.435181 647.819397 657.782776 646.803711 657.723389 642.722046 C 657.490662 626.735107 657.628357 610.742798 657.628357 594.752441 C 657.628357 592.985229 657.628357 591.217957 657.628357 588.855469 C 678.810608 588.855469 699.358154 588.855469 719.71582 588.855469 C 719.71582 578.852844 719.71582 569.459839 719.71582 559.604126 C 698.871887 559.604126 678.454956 559.604126 658.077148 559.604126 C 658.077148 546.248291 658.077148 533.377991 658.077148 520.07019 C 683.106384 520.07019 707.69104 520.07019 732.561279 520.07019 C 732.561279 510.228363 732.561279 500.833496 732.561279 490.854218 C 700.061951 490.854218 667.801758 490.854218 634.553162 490.85437 z" stroke-linecap="round" />
</g>
<g transform="matrix(1 0 0 1 827.09 747)"  >
<path style="stroke: none; stroke-width: 1; stroke-dasharray: none; stroke-linecap: butt; stroke-dashoffset: 0; stroke-linejoin: miter; stroke-miterlimit: 4; fill: rgb(236,155,51); fill-rule: nonzero; opacity: 1;" vector-effect="non-scaling-stroke"  transform=" translate(-846.59, -580.47)" d="M 872.144348 511.458374 C 873.28595 512.082153 873.997559 512.640503 874.867798 513.341309 C 875.718384 513.937317 876.353821 514.547974 877.110962 514.820801 C 887.152039 518.439148 891.110474 526.48114 894.554749 536.011719 C 910.890808 581.214478 927.868652 626.185181 944.611633 671.240967 C 944.953125 672.160095 945.217712 673.107849 945.781189 674.859985 C 941.323547 674.859985 937.273254 674.859985 933.2229 674.859924 C 923.72467 674.859924 914.218567 675.072876 904.733093 674.725647 C 902.007446 674.625916 898.896912 673.488708 896.729614 671.827026 C 889.863586 666.563049 883.436768 660.730652 876.683655 655.312927 C 873.356567 652.643738 870.641113 649.831299 869.545898 645.486694 C 869.244568 644.291626 867.061096 642.776184 865.723877 642.758911 C 850.729126 642.565918 835.729126 642.532593 820.736694 642.802002 C 819.264526 642.82843 817.105835 644.873169 816.505554 646.452393 C 813.375854 654.686707 810.552124 663.042664 807.834656 671.425293 C 806.970398 674.091064 805.651001 674.978455 802.834473 674.930054 C 792.506104 674.752625 782.171692 674.937195 771.842651 674.779968 C 770.204773 674.755005 768.09082 674.13269 767.034668 673.003235 C 760.781067 666.316101 754.679443 659.478088 748.774414 652.481812 C 747.738037 651.253906 747.063416 648.737915 747.585815 647.31897 C 767.176514 594.098389 786.926941 540.936584 806.666077 487.770752 C 806.837402 487.309387 807.148132 486.899811 807.650146 486.013336 C 816.22821 487.407684 825.772522 483.086609 834.630737 490.860138 C 827.277771 490.860138 820.798462 491.004852 814.330688 490.795105 C 811.381958 490.699524 809.963989 491.651276 808.918274 494.481476 C 790.646729 543.935425 772.261841 593.347473 753.915161 642.773682 C 753.465454 643.985107 753.170105 645.253906 752.61261 647.138855 C 754.652344 647.22821 756.23407 647.35321 757.81604 647.357422 C 765.647949 647.378174 773.484375 647.210693 781.309631 647.438477 C 784.786255 647.539612 786.701965 646.672913 787.802185 643.065247 C 790.274841 634.957031 793.330505 627.028503 795.958618 618.964844 C 796.850708 616.227661 798.087646 615.036011 801.207214 615.060852 C 820.869019 615.217407 840.533142 615.205994 860.19519 615.067505 C 863.053894 615.047424 864.331238 616.021118 865.191711 618.616394 C 867.964539 626.97937 871.043274 635.24176 873.762634 643.621277 C 874.687195 646.470276 876.083374 647.494263 879.109375 647.436523 C 888.910706 647.249268 898.717957 647.366577 909.578247 647.366577 C 891.653931 599.096252 873.999023 551.551392 855.947144 502.937408 C 861.904053 506.131927 866.809204 508.762451 872.144348 511.458374 z" stroke-linecap="round" />
</g>
<g transform="matrix(1 0 0 1 1003.56 747.03)"  >
<path style="stroke: none; stroke-width: 1; stroke-dasharray: none; stroke-linecap: butt; stroke-dashoffset: 0; stroke-linejoin: miter; stroke-miterlimit: 4; fill: rgb(236,155,52); fill-rule: nonzero; opacity: 1;" vector-effect="non-scaling-stroke"  transform=" translate(-1023.06, -580.51)" d="M 1099.016968 622.155029 C 1099.669556 649.424744 1080.651367 670.805664 1053.229126 673.940186 C 1048.116455 674.524597 1042.943115 674.797913 1037.795898 674.821838 C 1016.968506 674.918701 996.139465 674.95282 975.313904 674.734985 C 972.989502 674.710693 970.180603 673.474731 968.457947 671.873657 C 961.871765 665.752563 955.559082 659.32782 949.339417 652.829651 C 948.113281 651.548706 947.089111 649.439148 947.089417 647.711975 C 947.098145 594.897827 947.2453 542.083679 947.38678 489.269562 C 947.388916 488.463928 947.588745 487.658813 947.758911 486.385254 C 949.634827 486.299316 951.395935 486.14978 953.157166 486.148438 C 974.651489 486.132324 996.145813 486.115723 1017.640137 486.145111 C 1034.199951 486.167755 1048.626343 491.270691 1060.165405 503.671875 C 1066.063721 510.010925 1072.38501 515.956116 1078.504395 522.089905 C 1096.207153 539.833984 1097.672729 565.867859 1082.089844 585.533203 C 1081.690552 586.037231 1081.369263 586.603088 1080.762817 587.51355 C 1091.461792 596.470032 1098.356689 607.458862 1099.016968 622.155029 M 952.159485 491.777802 C 952.108643 492.440887 952.014771 493.103851 952.013062 493.76709 C 951.881653 543.553223 951.754272 593.339417 951.651428 643.125671 C 951.648804 644.394348 951.921753 645.663635 952.072449 646.987183 C 953.023621 647.139038 953.66217 647.329956 954.30072 647.330017 C 977.779602 647.331299 1001.260132 647.474731 1024.736816 647.24292 C 1039.581421 647.096375 1052.338135 641.731873 1062.221924 630.355896 C 1078.108154 612.071106 1076.38562 586.255127 1058.298584 571.746277 C 1055.64563 569.618225 1052.733521 567.813477 1050.225342 566.057983 C 1052.365356 563.73999 1054.296631 561.677063 1056.195801 559.584961 C 1061.584351 553.648987 1065.323364 546.895203 1066.108887 538.789307 C 1068.580811 513.278442 1050.499512 492.042419 1024.213135 491.148499 C 1000.43512 490.339813 976.606079 491.034973 952.159485 491.777802 z" stroke-linecap="round" />
</g>
<g transform="matrix(1 0 0 1 276.06 742.8)"  >
<path style="stroke: none; stroke-width: 1; stroke-dasharray: none; stroke-linecap: butt; stroke-dashoffset: 0; stroke-linejoin: miter; stroke-miterlimit: 4; fill: rgb(200,40,101); fill-rule: nonzero; opacity: 1;" vector-effect="non-scaling-stroke"  transform=" translate(-295.56, -576.28)" d="M 300.417175 481.841492 C 304.290222 484.598083 307.900116 487.162201 311.122681 490.144867 C 316.731812 495.336395 323.942657 499.911438 327.020935 506.389587 C 329.744507 512.121277 327.831696 520.092041 327.835388 527.074402 C 327.859344 572.554565 327.847717 618.034668 327.847717 663.514832 C 327.847717 665.486328 327.847748 667.457825 327.847748 670.163574 C 321.082611 670.163574 314.659851 670.197937 308.237671 670.154419 C 301.083984 670.105896 293.132629 671.906311 287.001892 669.357666 C 280.87442 666.810425 276.934021 659.422852 271.372314 654.988098 C 264.321014 649.36554 262.554199 642.654785 262.632111 633.82959 C 263.059998 585.354553 262.836334 536.873718 262.836334 488.394897 C 262.836334 486.422821 262.836334 484.450714 262.836334 481.837463 C 275.456055 481.837463 287.717865 481.837463 300.417175 481.841492 M 299.151703 556.5 C 299.151703 533.233521 299.151703 509.96698 299.151703 486.434265 C 288.247986 486.434265 277.859619 486.434265 267.326691 486.434265 C 267.326691 538.703613 267.326691 590.706238 267.326691 642.674561 C 278.052948 642.674561 288.455322 642.674561 299.151764 642.674561 C 299.151764 614.070496 299.151764 585.785217 299.151703 556.5 z" stroke-linecap="round" />
</g>
<g transform="matrix(1 0 0 1 551 746.11)"  >
<path style="stroke: none; stroke-width: 1; stroke-dasharray: none; stroke-linecap: butt; stroke-dashoffset: 0; stroke-linejoin: miter; stroke-miterlimit: 4; fill: rgb(1,155,200); fill-rule: nonzero; opacity: 1;" vector-effect="non-scaling-stroke"  transform=" translate(-570.5, -579.59)" d="M 577.774719 485.572662 C 585.578735 492.91806 593.141785 499.937592 600.468567 507.195618 C 601.80658 508.521118 602.893066 510.816956 602.897583 512.667786 C 603.025879 565.282837 603.001648 617.898193 602.991272 670.51355 C 602.991089 671.469482 602.856445 672.425415 602.750793 673.831116 C 589.547058 673.831116 576.603027 673.905273 563.662659 673.723206 C 562.278564 673.703735 560.692688 672.418579 559.579529 671.332092 C 553.145752 665.05249 546.734924 658.742554 540.540161 652.230103 C 539.218323 650.840454 538.107239 648.57251 538.102722 646.706299 C 537.974548 593.75824 538.000122 540.809875 538.008606 487.861511 C 538.008667 487.203094 538.111755 486.544678 538.213379 485.328735 C 551.301331 485.328735 564.376953 485.328735 577.774719 485.572662 M 574.58905 581.500061 C 574.58905 551.071167 574.58905 520.642273 574.58905 490.074463 C 563.557617 490.074463 553.130737 490.074463 542.425903 490.074463 C 542.425903 542.192505 542.425903 594.064331 542.425903 646.215576 C 553.077209 646.215576 563.60614 646.215576 574.588684 646.215576 C 574.588684 624.730225 574.588684 603.615173 574.58905 581.500061 z" stroke-linecap="round" />
</g>
<g transform="matrix(1 0 0 1 811.24 719.99)"  >
<path style="stroke: none; stroke-width: 1; stroke-dasharray: none; stroke-linecap: butt; stroke-dashoffset: 0; stroke-linejoin: miter; stroke-miterlimit: 4; fill: rgb(236,154,51); fill-rule: nonzero; opacity: 1;" vector-effect="non-scaling-stroke"  transform=" translate(-830.74, -553.46)" d="M 812.117676 588.004944 C 809.819519 588.004944 808.00354 588.004944 805.148682 588.004944 C 813.668518 565.023743 821.963562 542.648865 830.759583 518.922729 C 839.509399 542.567627 847.7724 564.896851 856.323608 588.004944 C 841.327942 588.004944 826.963928 588.004944 812.117676 588.004944 M 840.530701 571.025391 C 839.086243 575.150452 837.641724 579.275513 836.144714 583.550598 C 841.011902 583.550598 845.207581 583.550598 849.931824 583.550598 C 847.614868 577.34552 845.476135 571.617615 842.893921 564.702148 C 841.844727 567.539062 841.331787 568.926025 840.530701 571.025391 z" stroke-linecap="round" />
</g>
<g transform="matrix(1 0 0 1 365 638.31)"  >
<path style="stroke: none; stroke-width: 1; stroke-dasharray: none; stroke-linecap: butt; stroke-dashoffset: 0; stroke-linejoin: miter; stroke-miterlimit: 4; fill: rgb(16,157,201); fill-rule: nonzero; opacity: 1;" vector-effect="non-scaling-stroke"  transform=" translate(-384.5, -471.78)" d="M 382.646606 459.123108 C 383.799835 460.294342 384.957184 461.556946 385.541138 463.044556 C 388.249603 469.944305 390.798981 476.906494 392.712524 484.439667 C 387.74649 478.676147 382.780457 472.912628 377.814423 467.149109 C 377.302795 467.535065 376.791168 467.921021 376.279541 468.306976 C 378.315247 465.310669 380.350922 462.314392 382.646606 459.123108 z" stroke-linecap="round" />
</g>
<g transform="matrix(1 0 0 1 421.95 638.25)"  >
<path style="stroke: none; stroke-width: 1; stroke-dasharray: none; stroke-linecap: butt; stroke-dashoffset: 0; stroke-linejoin: miter; stroke-miterlimit: 4; fill: rgb(12,156,201); fill-rule: nonzero; opacity: 1;" vector-effect="non-scaling-stroke"  transform=" translate(-441.45, -471.73)" d="M 437.329529 481.250916 C 436.008301 482.510437 434.933044 483.529724 432.727844 485.620178 C 436.466827 475.724182 439.685425 467.205475 443.226807 457.832397 C 445.945831 461.691986 448.233765 464.939636 450.16684 467.683563 C 445.746613 472.362122 441.661072 476.686401 437.329529 481.250916 z" stroke-linecap="round" />
</g>
<g transform="matrix(1 0 0 1 372.37 634.6)"  >
<path style="stroke: none; stroke-width: 1; stroke-dasharray: none; stroke-linecap: butt; stroke-dashoffset: 0; stroke-linejoin: miter; stroke-miterlimit: 4; fill: rgb(41,166,205); fill-rule: nonzero; opacity: 1;" vector-effect="non-scaling-stroke"  transform=" translate(-391.87, -468.08)" d="M 394.899139 461.80249 C 394.707245 466.266724 394.508942 470.314087 394.310638 474.361481 C 394.00116 474.387604 393.69165 474.413757 393.382141 474.43988 C 391.997803 470.662567 390.613495 466.885223 388.850708 462.075165 C 391.210571 461.805847 393.051636 461.595703 394.899139 461.80249 z" stroke-linecap="round" />
</g>
<g transform="matrix(1 0 0 1 415.03 633.75)"  >
<path style="stroke: none; stroke-width: 1; stroke-dasharray: none; stroke-linecap: butt; stroke-dashoffset: 0; stroke-linejoin: miter; stroke-miterlimit: 4; fill: rgb(36,163,202); fill-rule: nonzero; opacity: 1;" vector-effect="non-scaling-stroke"  transform=" translate(-434.53, -467.23)" d="M 432.085144 466.101105 C 432.067139 463.913086 432.067139 462.173737 432.067139 460.298981 C 437.045929 461.046539 438.003174 463.45285 436.026001 467.533691 C 434.986206 469.679779 434.269257 471.982361 432.491455 474.155701 C 432.362 471.620392 432.232574 469.085114 432.085144 466.101105 z" stroke-linecap="round" />
</g>
<g transform="matrix(1 0 0 1 393.98 416.06)"  >
<path style="stroke: none; stroke-width: 1; stroke-dasharray: none; stroke-linecap: butt; stroke-dashoffset: 0; stroke-linejoin: miter; stroke-miterlimit: 4; fill: rgb(0,154,200); fill-rule: nonzero; opacity: 1;" vector-effect="non-scaling-stroke"  transform=" translate(-413.47, -249.54)" d="M 457.999878 161.017746 C 465.979767 161.236801 473.590759 160.652298 480.91156 161.846619 C 494.999237 164.144928 504.776672 175.494034 504.8703 189.703156 C 505.132751 229.530548 505.163452 269.362183 504.873108 309.189148 C 504.756165 325.230774 492.173126 337.772522 476.117676 337.877472 C 434.291443 338.151001 392.460815 338.160187 350.634827 337.866638 C 333.791168 337.748413 321.879791 324.795441 321.87381 307.807678 C 321.860199 269.144958 321.866241 230.482254 321.870941 191.819534 C 321.873169 173.437988 334.007355 161.113205 352.510712 161.048203 C 383.673828 160.938736 414.837585 161.017899 446.001068 161.017731 C 449.834015 161.017715 453.666992 161.017731 457.999878 161.017746 M 350.531403 319.773895 C 354.504181 320.680389 358.351471 319.944977 359.748596 316.027283 C 360.638794 313.530975 359.442902 310.290771 359.07196 306.795685 C 358.096771 306.14209 357.121582 305.488464 355.534027 304.348938 C 351.411591 303.24762 347.473511 304.117493 346.060364 308.122162 C 345.157928 310.679596 346.533691 314.040985 347.146576 317.648132 C 348.071747 318.198547 348.996887 318.748962 350.531403 319.773895 M 471.522766 319.766846 C 475.265289 320.622742 478.544128 319.947571 480.655701 316.497406 C 482.537659 313.422424 482.866791 310.265625 480.005524 306.786957 C 479.03183 306.14978 478.058136 305.512573 476.492065 304.374725 C 472.346619 303.215912 468.418152 304.124603 467.008484 308.143799 C 466.112 310.699829 467.509094 314.060272 468.145508 317.662384 C 469.070648 318.201904 469.995819 318.741425 471.522766 319.766846 M 347.103607 196.509888 C 348.032013 197.006317 348.960419 197.502747 350.468964 198.492096 C 354.335724 199.685028 357.455566 198.414581 359.568634 195.186722 C 361.548767 192.161911 361.667267 188.9375 358.93924 185.326431 C 358.01004 184.709763 357.080841 184.093109 355.454987 183.105743 C 351.65213 182.401917 347.9534 182.527161 345.931458 186.392014 C 344.267914 189.571793 343.827148 192.998093 347.103607 196.509888 M 471.5625 198.475174 C 475.309967 199.619476 478.442352 198.545349 480.53717 195.36702 C 482.561584 192.295502 482.97876 188.986099 480.011353 185.272202 C 479.067291 184.668686 478.12323 184.06517 476.609283 183.136017 C 472.707245 181.854767 469.329376 182.780792 467.150848 186.203201 C 465.166016 189.32135 464.968018 192.688583 468.123871 196.129745 C 469.077759 196.753342 470.031647 197.376938 471.5625 198.475174 z" stroke-linecap="round" />
</g>
<g transform="matrix(1 0 0 1 147.79 396.79)"  >
<path style="stroke: none; stroke-width: 1; stroke-dasharray: none; stroke-linecap: butt; stroke-dashoffset: 0; stroke-linejoin: miter; stroke-miterlimit: 4; fill: rgb(197,47,99); fill-rule: nonzero; opacity: 1;" vector-effect="non-scaling-stroke"  transform=" translate(-167.29, -230.26)" d="M 48.163727 206 C 48.163769 184.83989 48.164558 164.179794 48.163349 143.519684 C 48.162758 133.40065 50.950226 124.444717 59.082405 117.803169 C 64.869614 113.076767 71.615433 111.151573 79.024521 111.153786 C 138.005783 111.171417 196.987061 111.148811 255.968323 111.172615 C 273.729401 111.179787 286.133545 123.433853 286.307465 141.256836 C 286.445648 155.417664 286.336517 169.580902 286.336548 183.743073 C 286.336731 228.228943 285.952148 272.719635 286.511597 317.198486 C 286.76178 337.089264 271.73053 349.539886 254.4897 349.356323 C 196.681274 348.740875 138.857666 348.718811 81.050125 349.373657 C 64.143509 349.565186 47.83786 338.946228 48.066696 315.964539 C 48.429989 279.479675 48.163635 242.98851 48.163727 206 M 255.379135 194.176361 C 237.884293 149.788147 191.534302 124.489258 144.744232 134.449432 C 93.606659 145.335114 61.184372 192.838959 68.833511 244.691483 C 78.975769 313.444489 158.101929 349.220093 216.921509 311.706757 C 254.254349 287.897034 272.662689 240.448517 255.379135 194.176361 z" stroke-linecap="round" />
</g>
<g transform="matrix(1 0 0 1 856 424.16)"  >
<path style="stroke: none; stroke-width: 1; stroke-dasharray: none; stroke-linecap: butt; stroke-dashoffset: 0; stroke-linejoin: miter; stroke-miterlimit: 4; fill: rgb(232,152,50); fill-rule: nonzero; opacity: 1;" vector-effect="non-scaling-stroke"  transform=" translate(-875.5, -257.64)" d="M 952.409424 212.034393 C 952.409363 243.171616 952.416565 273.814514 952.406372 304.457428 C 952.400085 323.395874 940.459167 335.397675 921.605652 335.405548 C 890.796204 335.418427 859.986694 335.4216 829.177246 335.404327 C 810.675415 335.393951 798.608521 323.293701 798.596497 304.727997 C 798.576172 273.418945 798.57489 242.109863 798.596985 210.800812 C 798.610291 191.956604 810.665649 179.869186 829.415588 179.862366 C 859.891968 179.851273 890.368347 179.857849 920.844727 179.85994 C 940.707825 179.861313 952.388306 191.587158 952.409424 212.034393 M 828.183594 306.426819 C 827.203552 305.949921 826.223511 305.472992 824.651672 304.476929 C 820.713745 303.205872 817.464966 304.36142 815.302673 307.733734 C 813.286072 310.878784 813.215454 314.182404 816.284668 317.700378 C 817.179565 318.268311 818.074402 318.836212 819.618103 319.808075 C 823.552246 320.757874 827.456848 320.07785 828.857422 316.236359 C 829.824036 313.585144 828.651489 310.153992 828.183594 306.426819 M 930.523499 319.806519 C 934.450439 320.691772 937.835754 319.935181 939.869324 316.188324 C 941.456543 313.263763 941.902954 310.238586 939.016846 306.976868 C 938.040894 306.309967 937.064941 305.643066 935.520752 304.4617 C 931.560669 303.184631 928.202148 304.354889 926.103577 307.724213 C 924.19812 310.783508 923.909058 314.207397 927.128967 317.717712 C 928.042053 318.274384 928.955078 318.831024 930.523499 319.806519 M 819.453308 213.990448 C 823.318237 215.854782 826.230103 214.064667 828.427979 211.178009 C 830.717651 208.170914 830.974182 204.842621 828.068542 201.156464 C 827.09491 200.470184 826.121338 199.783905 824.462524 198.771149 C 820.631348 197.340073 817.411133 198.559357 815.325317 201.735687 C 813.316101 204.795319 812.765503 208.24794 816.13678 211.869431 C 817.076294 212.429672 818.015808 212.989914 819.453308 213.990448 M 930.589111 214.166718 C 934.515747 215.604767 937.490417 214.027924 939.609375 210.883774 C 941.624939 207.893082 941.971069 204.697998 939.020752 201.202759 C 938.057678 200.501053 937.094604 199.799332 935.43634 198.771484 C 931.445984 197.181274 928.238586 198.572159 926.166687 201.930878 C 924.285339 204.98085 923.832581 208.375793 927.085632 211.820984 C 928.027832 212.503555 928.969971 213.186127 930.589111 214.166718 z" stroke-linecap="round" />
</g>
<g transform="matrix(1 0 0 1 632.23 423.45)"  >
<path style="stroke: none; stroke-width: 1; stroke-dasharray: none; stroke-linecap: butt; stroke-dashoffset: 0; stroke-linejoin: miter; stroke-miterlimit: 4; fill: rgb(248,248,248); fill-rule: nonzero; opacity: 1;" vector-effect="non-scaling-stroke"  transform=" translate(-651.72, -256.93)" d="M 611.999634 270.507996 C 577.386292 270.507965 543.27301 270.507965 508.826477 270.507965 C 508.826477 261.274414 508.826477 252.39798 508.826477 243.343414 C 604.131531 243.343414 699.184998 243.343414 794.619385 243.343414 C 794.619385 252.202911 794.619385 261.092438 794.619385 270.507996 C 733.993164 270.507996 673.246399 270.507996 611.999634 270.507996 z" stroke-linecap="round" />
</g>
<g transform="matrix(1 0 0 1 148 543.87)"  >
<path style="stroke: none; stroke-width: 1; stroke-dasharray: none; stroke-linecap: butt; stroke-dashoffset: 0; stroke-linejoin: miter; stroke-miterlimit: 4; fill: rgb(162,167,173); fill-rule: nonzero; opacity: 1;" vector-effect="non-scaling-stroke"  transform=" translate(-167.5, -377.35)" d="M 147 353.020752 C 169.801025 353.020752 192.102066 353.020752 214.768097 353.020752 C 214.768097 369.304169 214.768097 385.343903 214.768097 401.6828 C 183.401169 401.6828 152.000015 401.6828 120.232025 401.6828 C 120.232025 385.696045 120.232025 369.656281 120.232025 353.020752 C 128.95813 353.020752 137.729065 353.020752 147 353.020752 z" stroke-linecap="round" />
</g>
<g transform="matrix(1 0 0 1 145.13 586.95)"  >
<path style="stroke: none; stroke-width: 1; stroke-dasharray: none; stroke-linecap: butt; stroke-dashoffset: 0; stroke-linejoin: miter; stroke-miterlimit: 4; fill: rgb(219,220,225); fill-rule: nonzero; opacity: 1;" vector-effect="non-scaling-stroke"  transform=" translate(-164.63, -420.43)" d="M 175.926666 434.996033 C 166.159424 434.996033 156.882431 434.996033 147.391327 434.996033 C 147.391327 425.088013 147.391327 415.651428 147.391327 405.854858 C 158.796097 405.854858 170.194077 405.854858 181.878479 405.854858 C 181.878479 415.440186 181.878479 424.990814 181.878479 434.996033 C 179.991241 434.996033 178.204071 434.996033 175.926666 434.996033 z" stroke-linecap="round" />
</g>
<g transform="matrix(1 0 0 1 842.4 568.06)"  >
<path style="stroke: none; stroke-width: 1; stroke-dasharray: none; stroke-linecap: butt; stroke-dashoffset: 0; stroke-linejoin: miter; stroke-miterlimit: 4; fill: rgb(219,143,46); fill-rule: nonzero; opacity: 1;" vector-effect="non-scaling-stroke"  transform=" translate(-861.9, -401.54)" d="M 858.212524 445.998596 C 858.212585 410.217255 858.212585 374.935486 858.212585 339.318665 C 860.816162 339.318665 863.04834 339.318665 865.590942 339.318665 C 865.590942 380.407104 865.590942 421.474792 865.590942 463.003998 C 863.401611 463.227661 861.167786 463.455872 858.212463 463.757751 C 858.212463 457.707458 858.212463 452.102814 858.212524 445.998596 z" stroke-linecap="round" />
</g>
<g transform="matrix(1 0 0 1 855.84 567.56)"  >
<path style="stroke: none; stroke-width: 1; stroke-dasharray: none; stroke-linecap: butt; stroke-dashoffset: 0; stroke-linejoin: miter; stroke-miterlimit: 4; fill: rgb(233,152,48); fill-rule: nonzero; opacity: 1;" vector-effect="non-scaling-stroke"  transform=" translate(-875.34, -401.04)" d="M 879.283081 432.000061 C 879.283142 442.466736 879.283142 452.433411 879.283142 462.741364 C 876.529175 462.741364 874.124939 462.741364 871.388672 462.741364 C 871.388672 421.721191 871.388672 380.68576 871.388672 339.330322 C 873.784851 339.330322 876.186462 339.330322 879.28302 339.330322 C 879.28302 370.048584 879.28302 400.774323 879.283081 432.000061 z" stroke-linecap="round" />
</g>
<g transform="matrix(1 0 0 1 868.85 567.6)"  >
<path style="stroke: none; stroke-width: 1; stroke-dasharray: none; stroke-linecap: butt; stroke-dashoffset: 0; stroke-linejoin: miter; stroke-miterlimit: 4; fill: rgb(237,154,49); fill-rule: nonzero; opacity: 1;" vector-effect="non-scaling-stroke"  transform=" translate(-888.35, -401.08)" d="M 884.929077 412 C 884.929077 387.535339 884.929077 363.570679 884.929077 339.313477 C 887.333984 339.313477 889.403076 339.313477 891.773804 339.313477 C 891.773804 380.399628 891.773804 421.463196 891.773804 462.843018 C 889.654053 462.843018 887.591309 462.843018 884.929077 462.843018 C 884.929077 446.047455 884.929077 429.273743 884.929077 412 z" stroke-linecap="round" />
</g>
<g transform="matrix(1 0 0 1 284.44 423.32)"  >
<path style="stroke: none; stroke-width: 1; stroke-dasharray: none; stroke-linecap: butt; stroke-dashoffset: 0; stroke-linejoin: miter; stroke-miterlimit: 4; fill: rgb(248,248,248); fill-rule: nonzero; opacity: 1;" vector-effect="non-scaling-stroke"  transform=" translate(-303.94, -256.79)" d="M 290.000397 253.038696 C 290.000397 249.581146 290.000397 246.615814 290.000397 243.414886 C 299.461029 243.414886 308.533783 243.414886 317.887268 243.414886 C 317.887268 252.311707 317.887268 261.069672 317.887268 270.168518 C 308.835815 270.168518 299.765839 270.168518 290.000397 270.168518 C 290.000397 264.685699 290.000397 259.108307 290.000397 253.038696 z" stroke-linecap="round" />
</g>
<g transform="matrix(1 0 0 1 394.51 528.42)"  >
<path style="stroke: none; stroke-width: 1; stroke-dasharray: none; stroke-linecap: butt; stroke-dashoffset: 0; stroke-linejoin: miter; stroke-miterlimit: 4; fill: rgb(250,250,250); fill-rule: nonzero; opacity: 1;" vector-effect="non-scaling-stroke"  transform=" translate(-414.02, -361.89)" d="M 414.677612 370.656128 C 411.776978 374.423523 409.106812 377.916687 406.436676 381.409821 C 405.945709 381.281464 405.454742 381.153107 404.963776 381.02475 C 404.963776 368.256378 404.963776 355.488037 404.963776 342.371796 C 410.241913 342.371796 416.274658 342.371796 422.307159 342.371796 C 424.165558 352.925354 422.982819 362.567871 414.677612 370.656128 z" stroke-linecap="round" />
</g>
<g transform="matrix(1 0 0 1 855.85 646.11)"  >
<path style="stroke: none; stroke-width: 1; stroke-dasharray: none; stroke-linecap: butt; stroke-dashoffset: 0; stroke-linejoin: miter; stroke-miterlimit: 4; fill: rgb(248,240,197); fill-rule: nonzero; opacity: 1;" vector-effect="non-scaling-stroke"  transform=" translate(-875.35, -479.59)" d="M 862.160583 474.740906 C 861.346436 472.717834 860.675659 471.057434 859.86853 469.059601 C 870.181091 469.059601 880.088501 469.059601 890.825378 469.059601 C 887.853088 475.648621 885.326843 482.090851 882.071594 488.140839 C 880.202332 491.615112 869.09552 490.14859 867.360168 486.475861 C 865.588379 482.725922 863.982422 478.897614 862.160583 474.740906 z" stroke-linecap="round" />
</g>
<g transform="matrix(1 0 0 1 145.7 620.86)"  >
<path style="stroke: none; stroke-width: 1; stroke-dasharray: none; stroke-linecap: butt; stroke-dashoffset: 0; stroke-linejoin: miter; stroke-miterlimit: 4; fill: rgb(236,182,62); fill-rule: nonzero; opacity: 1;" vector-effect="non-scaling-stroke"  transform=" translate(-165.2, -454.33)" d="M 152.457474 441.310822 C 151.182236 438.040314 153.332397 438.461548 154.920853 438.455292 C 162.405014 438.425842 169.889359 438.442169 178.321045 438.442169 C 173.811356 449.049286 169.519745 459.143463 164.806625 470.229034 C 160.479202 460.058441 156.56604 450.861481 152.457474 441.310822 z" stroke-linecap="round" />
</g>
<g transform="matrix(1 0 0 1 394.03 624.38)"  >
<path style="stroke: none; stroke-width: 1; stroke-dasharray: none; stroke-linecap: butt; stroke-dashoffset: 0; stroke-linejoin: miter; stroke-miterlimit: 4; fill: rgb(247,247,247); fill-rule: nonzero; opacity: 1;" vector-effect="non-scaling-stroke"  transform=" translate(-413.53, -457.86)" d="M 404.98996 476.905579 C 403.319366 467.529297 402.48822 458.850891 409.251373 451.177124 C 413.284546 446.600922 416.616669 441.406952 421.129059 435.324615 C 422.79895 444.786804 425.297302 453.050842 420.184082 460.924469 C 415.972504 467.409821 411.176361 473.515533 406.208191 480.385681 C 405.600372 478.789398 405.323364 478.061859 404.98996 476.905579 z" stroke-linecap="round" />
</g>
<g transform="matrix(1 0 0 1 393.79 575.51)"  >
<path style="stroke: none; stroke-width: 1; stroke-dasharray: none; stroke-linecap: butt; stroke-dashoffset: 0; stroke-linejoin: miter; stroke-miterlimit: 4; fill: rgb(248,248,248); fill-rule: nonzero; opacity: 1;" vector-effect="non-scaling-stroke"  transform=" translate(-413.29, -408.98)" d="M 404.062561 423.549377 C 400.930328 407.294952 412.728333 398.394379 420.365204 387.454193 C 424.099243 393.650299 423.877747 406.825256 419.901611 412.315948 C 415.817047 417.95636 411.596039 423.49826 407.404083 429.060181 C 407.051697 429.52771 406.466827 429.820038 405.587616 430.509064 C 405.022125 428.053711 404.555847 426.029205 404.062561 423.549377 z" stroke-linecap="round" />
</g>
<g transform="matrix(1 0 0 1 397.86 659.63)"  >
<path style="stroke: none; stroke-width: 1; stroke-dasharray: none; stroke-linecap: butt; stroke-dashoffset: 0; stroke-linejoin: miter; stroke-miterlimit: 4; fill: rgb(237,237,237); fill-rule: nonzero; opacity: 1;" vector-effect="non-scaling-stroke"  transform=" translate(-417.37, -493.11)" d="M 415.179077 492.293945 C 417.070709 489.775391 418.757202 487.559143 420.485382 485.288116 C 424.240112 491.077362 424.448639 491.286896 412.854126 500.924377 C 411.399628 497.64679 411.399628 497.64679 415.179077 492.293945 z" stroke-linecap="round" />
</g>
<g transform="matrix(1 0 0 1 855.96 666.18)"  >
<path style="stroke: none; stroke-width: 1; stroke-dasharray: none; stroke-linecap: butt; stroke-dashoffset: 0; stroke-linejoin: miter; stroke-miterlimit: 4; fill: rgb(224,146,47); fill-rule: nonzero; opacity: 1;" vector-effect="non-scaling-stroke"  transform=" translate(-875.46, -499.65)" d="M 871.525879 495.573242 C 873.854614 495.028442 876.132324 494.873413 879.392395 494.65155 C 877.987061 498.108124 876.859558 500.881134 875.329346 504.644745 C 873.812988 501.22934 872.643921 498.596191 871.525879 495.573242 z" stroke-linecap="round" />
</g>
<g transform="matrix(1 0 0 1 823.53 740.65)"  >
<path style="stroke: none; stroke-width: 1; stroke-dasharray: none; stroke-linecap: butt; stroke-dashoffset: 0; stroke-linejoin: miter; stroke-miterlimit: 4; fill: rgb(254,249,242); fill-rule: nonzero; opacity: 1;" vector-effect="non-scaling-stroke"  transform=" translate(-843.04, -574.13)" d="M 840.674805 570.669189 C 841.331787 568.926025 841.844727 567.539062 842.893921 564.702148 C 845.476135 571.617615 847.614868 577.34552 849.931824 583.550598 C 845.207581 583.550598 841.011902 583.550598 836.144714 583.550598 C 837.641724 579.275513 839.086243 575.150452 840.674805 570.669189 z" stroke-linecap="round" />
</g>
<g transform="matrix(1 0 0 1 331.24 477.1)"  >
<path style="stroke: none; stroke-width: 1; stroke-dasharray: none; stroke-linecap: butt; stroke-dashoffset: 0; stroke-linejoin: miter; stroke-miterlimit: 4; fill: rgb(177,183,190); fill-rule: nonzero; opacity: 1;" vector-effect="non-scaling-stroke"  transform=" translate(-350.73, -310.58)" d="M 346.888 317.041931 C 346.533691 314.040985 345.157928 310.679596 346.060364 308.122162 C 347.473511 304.117493 351.411591 303.24762 355.711243 304.924591 C 352.888306 309.347473 349.888153 313.194702 346.888 317.041931 z" stroke-linecap="round" />
</g>
<g transform="matrix(1 0 0 1 451.7 355.71)"  >
<path style="stroke: none; stroke-width: 1; stroke-dasharray: none; stroke-linecap: butt; stroke-dashoffset: 0; stroke-linejoin: miter; stroke-miterlimit: 4; fill: rgb(175,182,189); fill-rule: nonzero; opacity: 1;" vector-effect="non-scaling-stroke"  transform=" translate(-471.2, -189.19)" d="M 467.872772 195.622253 C 464.968018 192.688583 465.166016 189.32135 467.150848 186.203201 C 469.329376 182.780792 472.707245 181.854767 476.725769 183.640564 C 473.852448 187.97084 470.86261 191.796555 467.872772 195.622253 z" stroke-linecap="round" />
</g>
<g transform="matrix(1 0 0 1 452.18 477.11)"  >
<path style="stroke: none; stroke-width: 1; stroke-dasharray: none; stroke-linecap: butt; stroke-dashoffset: 0; stroke-linejoin: miter; stroke-miterlimit: 4; fill: rgb(175,182,189); fill-rule: nonzero; opacity: 1;" vector-effect="non-scaling-stroke"  transform=" translate(-471.69, -310.59)" d="M 467.877716 317.060028 C 467.509094 314.060272 466.112 310.699829 467.008484 308.143799 C 468.418152 304.124603 472.346619 303.215912 476.661438 304.951141 C 473.846436 309.371735 470.862091 313.215881 467.877716 317.060028 z" stroke-linecap="round" />
</g>
<g transform="matrix(1 0 0 1 336.17 358.88)"  >
<path style="stroke: none; stroke-width: 1; stroke-dasharray: none; stroke-linecap: butt; stroke-dashoffset: 0; stroke-linejoin: miter; stroke-miterlimit: 4; fill: rgb(171,181,189); fill-rule: nonzero; opacity: 1;" vector-effect="non-scaling-stroke"  transform=" translate(-355.67, -192.36)" d="M 359.118683 185.990051 C 361.667267 188.9375 361.548767 192.161911 359.568634 195.186722 C 357.455566 198.414581 354.335724 199.685028 350.303833 197.925293 C 353.132019 193.569 356.125336 189.779526 359.118683 185.990051 z" stroke-linecap="round" />
</g>
<g transform="matrix(1 0 0 1 457.29 358.85)"  >
<path style="stroke: none; stroke-width: 1; stroke-dasharray: none; stroke-linecap: butt; stroke-dashoffset: 0; stroke-linejoin: miter; stroke-miterlimit: 4; fill: rgb(174,181,188); fill-rule: nonzero; opacity: 1;" vector-effect="non-scaling-stroke"  transform=" translate(-476.79, -192.32)" d="M 480.242432 185.922287 C 482.97876 188.986099 482.561584 192.295502 480.53717 195.36702 C 478.442352 198.545349 475.309967 199.619476 471.398254 197.924591 C 474.236847 193.556763 477.239655 189.739532 480.242432 185.922287 z" stroke-linecap="round" />
</g>
<g transform="matrix(1 0 0 1 330.6 355.96)"  >
<path style="stroke: none; stroke-width: 1; stroke-dasharray: none; stroke-linecap: butt; stroke-dashoffset: 0; stroke-linejoin: miter; stroke-miterlimit: 4; fill: rgb(175,182,189); fill-rule: nonzero; opacity: 1;" vector-effect="non-scaling-stroke"  transform=" translate(-350.11, -189.43)" d="M 346.802917 195.926941 C 343.827148 192.998093 344.267914 189.571793 345.931458 186.392014 C 347.9534 182.527161 351.65213 182.401917 355.590271 183.599945 C 352.751343 188.038406 349.77713 191.982681 346.802917 195.926941 z" stroke-linecap="round" />
</g>
<g transform="matrix(1 0 0 1 457.26 480.16)"  >
<path style="stroke: none; stroke-width: 1; stroke-dasharray: none; stroke-linecap: butt; stroke-dashoffset: 0; stroke-linejoin: miter; stroke-miterlimit: 4; fill: rgb(174,181,188); fill-rule: nonzero; opacity: 1;" vector-effect="non-scaling-stroke"  transform=" translate(-476.76, -313.63)" d="M 480.147156 307.364807 C 482.866791 310.265625 482.537659 313.422424 480.655701 316.497406 C 478.544128 319.947571 475.265289 320.622742 471.393005 319.210327 C 474.224548 314.890778 477.185852 311.127808 480.147156 307.364807 z" stroke-linecap="round" />
</g>
<g transform="matrix(1 0 0 1 335.75 480.18)"  >
<path style="stroke: none; stroke-width: 1; stroke-dasharray: none; stroke-linecap: butt; stroke-dashoffset: 0; stroke-linejoin: miter; stroke-miterlimit: 4; fill: rgb(174,181,188); fill-rule: nonzero; opacity: 1;" vector-effect="non-scaling-stroke"  transform=" translate(-355.25, -313.65)" d="M 359.182404 307.384125 C 359.442902 310.290771 360.638794 313.530975 359.748596 316.027283 C 358.351471 319.944977 354.504181 320.680389 350.42099 319.237091 C 353.267853 314.928253 356.225128 311.156189 359.182404 307.384125 z" stroke-linecap="round" />
</g>
<g transform="matrix(1 0 0 1 333.49 357.26)"  >
<path style="stroke: none; stroke-width: 1; stroke-dasharray: none; stroke-linecap: butt; stroke-dashoffset: 0; stroke-linejoin: miter; stroke-miterlimit: 4; fill: rgb(13,15,16); fill-rule: nonzero; opacity: 1;" vector-effect="non-scaling-stroke"  transform=" translate(-352.99, -190.73)" d="M 346.953247 196.218414 C 349.77713 191.982681 352.751343 188.038406 355.938599 183.785278 C 357.080841 184.093109 358.01004 184.709763 359.028961 185.658234 C 356.125336 189.779526 353.132019 193.569 350.013763 197.678833 C 348.960419 197.502747 348.032013 197.006317 346.953247 196.218414 z" stroke-linecap="round" />
</g>
<g transform="matrix(1 0 0 1 333.57 478.61)"  >
<path style="stroke: none; stroke-width: 1; stroke-dasharray: none; stroke-linecap: butt; stroke-dashoffset: 0; stroke-linejoin: miter; stroke-miterlimit: 4; fill: rgb(12,14,15); fill-rule: nonzero; opacity: 1;" vector-effect="non-scaling-stroke"  transform=" translate(-353.07, -312.08)" d="M 359.127197 307.089905 C 356.225128 311.156189 353.267853 314.928253 350.116302 318.999847 C 348.996887 318.748962 348.071747 318.198547 347.017273 317.345032 C 349.888153 313.194702 352.888306 309.347473 356.017426 305.167542 C 357.121582 305.488464 358.096771 306.14209 359.127197 307.089905 z" stroke-linecap="round" />
</g>
<g transform="matrix(1 0 0 1 454.56 357.27)"  >
<path style="stroke: none; stroke-width: 1; stroke-dasharray: none; stroke-linecap: butt; stroke-dashoffset: 0; stroke-linejoin: miter; stroke-miterlimit: 4; fill: rgb(12,14,15); fill-rule: nonzero; opacity: 1;" vector-effect="non-scaling-stroke"  transform=" translate(-474.06, -190.75)" d="M 480.126892 185.597244 C 477.239655 189.739532 474.236847 193.556763 471.109802 197.687256 C 470.031647 197.376938 469.077759 196.753342 467.998322 195.876007 C 470.86261 191.796555 473.852448 187.97084 477.010742 183.803391 C 478.12323 184.06517 479.067291 184.668686 480.126892 185.597244 z" stroke-linecap="round" />
</g>
<g transform="matrix(1 0 0 1 454.54 478.61)"  >
<path style="stroke: none; stroke-width: 1; stroke-dasharray: none; stroke-linecap: butt; stroke-dashoffset: 0; stroke-linejoin: miter; stroke-miterlimit: 4; fill: rgb(13,12,12); fill-rule: nonzero; opacity: 1;" vector-effect="non-scaling-stroke"  transform=" translate(-474.04, -312.08)" d="M 480.076355 307.075897 C 477.185852 311.127808 474.224548 314.890778 471.092133 318.967346 C 469.995819 318.741425 469.070648 318.201904 468.011597 317.361206 C 470.862091 313.215881 473.846436 309.371735 476.957642 305.201477 C 478.058136 305.512573 479.03183 306.14978 480.076355 307.075897 z" stroke-linecap="round" />
</g>
<g transform="matrix(1 0 0 1 145.35 396.11)"  >
<path style="stroke: none; stroke-width: 1; stroke-dasharray: none; stroke-linecap: butt; stroke-dashoffset: 0; stroke-linejoin: miter; stroke-miterlimit: 4; fill: rgb(13,10,11); fill-rule: nonzero; opacity: 1;" vector-effect="non-scaling-stroke"  transform=" translate(-164.85, -229.58)" d="M 255.549088 194.525085 C 272.662689 240.448517 254.254349 287.897034 216.921509 311.706757 C 158.101929 349.220093 78.975769 313.444489 68.833511 244.691483 C 61.184372 192.838959 93.606659 145.335114 144.744232 134.449432 C 191.534302 124.489258 237.884293 149.788147 255.549088 194.525085 M 125.981262 314.796692 C 126.179558 314.369873 126.377861 313.943085 126.518623 312.697876 C 120.102135 282.198334 134.980621 260.245819 155.37973 240.766815 C 153.920303 237.512009 152.528412 234.407837 150.711395 230.355515 C 142.51088 230.903778 133.82251 230.767731 125.397957 232.192093 C 105.831291 235.50029 90.589737 245.655243 80.724129 263.153992 C 79.823044 264.752289 79.337479 267.440552 80.054855 268.9664 C 89.740677 289.568268 104.774071 304.921967 125.981262 314.796692 M 77.771446 195.32486 C 68.169914 217.648331 69.987701 248.023712 77.495598 260.916199 C 94.63533 233.014282 121.022697 225.294159 151.342239 227.283447 C 152.587601 224.410767 153.630859 222.004318 154.669235 219.60907 C 145.457794 209.040176 130.176529 197.291 118.025253 191.549347 C 109.020905 187.294632 99.67028 184.875381 89.555237 185.832901 C 83.726105 186.384689 79.328423 188.32605 77.771446 195.32486 M 150.452621 210.041275 C 152.659256 212.515762 154.865891 214.99025 156.209106 216.496521 C 167.209686 215.736267 166.629532 208.410522 166.974396 201.658371 C 167.042206 200.330856 167.086716 199.000946 167.096161 197.671814 C 167.258255 174.874023 159.753311 155.664474 140.669006 142.076752 C 139.121262 140.974777 136.266876 140.536255 134.470474 141.137146 C 117.159149 146.927704 102.926704 157.253281 91.518089 171.438492 C 88.735779 174.897949 86.421707 178.733978 83.22464 183.3638 C 94.692474 180.725586 104.424637 182.295319 113.918587 185.887894 C 127.678215 191.094604 139.150711 199.804794 150.452621 210.041275 M 223.196396 302.728363 C 235.019012 293.076904 244.266037 281.50589 250.629532 266.655823 C 221.274078 271.571655 197.058609 264.594696 179.598633 240.872543 C 175.966156 242.693695 172.760727 244.300766 168.289597 246.542389 C 169.66272 255.927658 170.456802 266.052155 172.730881 275.83252 C 176.437759 291.775146 184.565506 304.979156 199.400208 313.250061 C 201.985199 314.691254 204.132278 314.935181 206.666046 313.263733 C 211.920776 309.797302 217.29184 306.507263 223.196396 302.728363 M 166.092133 259.264893 C 166.092133 254.646393 166.092133 250.027893 166.092133 246.883499 C 159.452148 240.628052 155.80658 244.943771 152.462555 248.832108 C 147.594971 254.491943 142.594971 260.149139 138.56839 266.398346 C 129.563538 280.373657 126.315094 295.63797 129.990723 312.150269 C 130.807007 315.817261 132.630371 317.805237 136.243469 318.883881 C 148.514572 322.54715 161.028015 324.231323 173.71637 322.711456 C 181.835831 321.738861 189.80954 319.5495 198.106674 317.852844 C 192.72757 313.188873 187.839172 309.66684 183.825012 305.334747 C 172.086182 292.665955 168.089081 276.794739 166.092133 259.264893 M 206.935242 228.509811 C 199.073639 230.042404 191.212036 231.574997 182.844269 233.206268 C 181.542572 237.330002 181.479691 237.381454 184.876648 241.533493 C 202.127716 262.619293 224.574203 267.899017 250.320175 262.810059 C 251.427231 262.591217 252.784195 261.252411 253.173019 260.138123 C 260.075562 240.357483 260.090607 220.493866 253.677582 200.107346 C 239.122406 211.22644 224.648285 221.80925 206.935242 228.509811 M 168.267593 176.278366 C 171.491974 188.6642 171.169205 201.170517 169.352402 212.749512 C 175.689041 218.796875 180.465591 215.509598 185.023666 211.139206 C 186.94104 209.300781 188.933716 207.499939 190.595673 205.442505 C 204.325073 188.446198 207.015457 168.550293 205.39328 147.634094 C 205.289749 146.298981 203.597336 144.430145 202.244141 143.959473 C 195.378143 141.571304 188.495789 138.997467 181.402802 137.545822 C 168.826706 134.972015 156.182602 135.327606 142.764832 138.718063 C 155.71666 148.558273 164.192291 160.491837 168.267593 176.278366 M 216.679977 220.209702 C 228.693909 212.588531 240.70784 204.967377 252.740555 197.33429 C 243.715851 174.778748 229.634781 158.560623 209.236176 147.226257 C 210.411469 176.200577 205.673523 202.111267 180.117767 219.497482 C 181.306778 222.275116 182.462326 224.974579 183.69809 227.861435 C 195.414001 229.944107 205.772949 225.466751 216.679977 220.209702 M 168.937363 217.544312 C 159.8479 217.366394 153.500839 224.383942 155.581711 232.310822 C 157.12384 238.18541 162.279831 242.1241 168.014191 241.808105 C 173.931244 241.482025 178.872345 236.758514 179.648361 230.686264 C 180.378494 224.973007 176.446609 219.838486 168.937363 217.544312 z" stroke-linecap="round" />
</g>
<g transform="matrix(1 0 0 1 910.67 371.31)"  >
<path style="stroke: none; stroke-width: 1; stroke-dasharray: none; stroke-linecap: butt; stroke-dashoffset: 0; stroke-linejoin: miter; stroke-miterlimit: 4; fill: rgb(182,181,183); fill-rule: nonzero; opacity: 1;" vector-effect="non-scaling-stroke"  transform=" translate(-930.17, -204.79)" d="M 926.833435 211.295654 C 923.832581 208.375793 924.285339 204.98085 926.166687 201.930878 C 928.238586 198.572159 931.445984 197.181274 935.664062 199.250168 C 932.872314 203.584442 929.852844 207.440048 926.833435 211.295654 z" stroke-linecap="round" />
</g>
<g transform="matrix(1 0 0 1 799.83 477.16)"  >
<path style="stroke: none; stroke-width: 1; stroke-dasharray: none; stroke-linecap: butt; stroke-dashoffset: 0; stroke-linejoin: miter; stroke-miterlimit: 4; fill: rgb(182,181,183); fill-rule: nonzero; opacity: 1;" vector-effect="non-scaling-stroke"  transform=" translate(-819.33, -310.64)" d="M 816.043762 317.098846 C 813.215454 314.182404 813.286072 310.878784 815.302673 307.733734 C 817.464966 304.36142 820.713745 303.205872 824.815063 305.066101 C 822.000183 309.469788 819.021973 313.284302 816.043762 317.098846 z" stroke-linecap="round" />
</g>
<g transform="matrix(1 0 0 1 799.69 371.32)"  >
<path style="stroke: none; stroke-width: 1; stroke-dasharray: none; stroke-linecap: butt; stroke-dashoffset: 0; stroke-linejoin: miter; stroke-miterlimit: 4; fill: rgb(182,181,183); fill-rule: nonzero; opacity: 1;" vector-effect="non-scaling-stroke"  transform=" translate(-819.19, -204.8)" d="M 815.843872 211.260376 C 812.765503 208.24794 813.316101 204.795319 815.325317 201.735687 C 817.411133 198.559357 820.631348 197.340073 824.695312 199.254822 C 821.899963 203.579117 818.871887 207.419754 815.843872 211.260376 z" stroke-linecap="round" />
</g>
<g transform="matrix(1 0 0 1 910.66 477.16)"  >
<path style="stroke: none; stroke-width: 1; stroke-dasharray: none; stroke-linecap: butt; stroke-dashoffset: 0; stroke-linejoin: miter; stroke-miterlimit: 4; fill: rgb(182,181,184); fill-rule: nonzero; opacity: 1;" vector-effect="non-scaling-stroke"  transform=" translate(-930.16, -310.64)" d="M 926.846863 317.125732 C 923.909058 314.207397 924.19812 310.783508 926.103577 307.724213 C 928.202148 304.354889 931.560669 303.184631 935.674561 305.037903 C 932.834595 309.451324 929.840759 313.288544 926.846863 317.125732 z" stroke-linecap="round" />
</g>
<g transform="matrix(1 0 0 1 916.28 374.69)"  >
<path style="stroke: none; stroke-width: 1; stroke-dasharray: none; stroke-linecap: butt; stroke-dashoffset: 0; stroke-linejoin: miter; stroke-miterlimit: 4; fill: rgb(182,181,184); fill-rule: nonzero; opacity: 1;" vector-effect="non-scaling-stroke"  transform=" translate(-935.78, -208.17)" d="M 939.16394 201.80365 C 941.971069 204.697998 941.624939 207.893082 939.609375 210.883774 C 937.490417 214.027924 934.515747 215.604767 930.370178 213.708069 C 933.155457 209.434158 936.159668 205.618896 939.16394 201.80365 z" stroke-linecap="round" />
</g>
<g transform="matrix(1 0 0 1 805.32 374.69)"  >
<path style="stroke: none; stroke-width: 1; stroke-dasharray: none; stroke-linecap: butt; stroke-dashoffset: 0; stroke-linejoin: miter; stroke-miterlimit: 4; fill: rgb(182,181,184); fill-rule: nonzero; opacity: 1;" vector-effect="non-scaling-stroke"  transform=" translate(-824.82, -208.17)" d="M 828.238281 201.757034 C 830.974182 204.842621 830.717651 208.170914 828.427979 211.178009 C 826.230103 214.064667 823.318237 215.854782 819.428101 213.484802 C 822.348083 209.238449 825.293152 205.497742 828.238281 201.757034 z" stroke-linecap="round" />
</g>
<g transform="matrix(1 0 0 1 916.26 480.3)"  >
<path style="stroke: none; stroke-width: 1; stroke-dasharray: none; stroke-linecap: butt; stroke-dashoffset: 0; stroke-linejoin: miter; stroke-miterlimit: 4; fill: rgb(182,181,183); fill-rule: nonzero; opacity: 1;" vector-effect="non-scaling-stroke"  transform=" translate(-935.76, -313.77)" d="M 939.130859 307.592896 C 941.902954 310.238586 941.456543 313.263763 939.869324 316.188324 C 937.835754 319.935181 934.450439 320.691772 930.38916 319.285583 C 933.21344 315.040741 936.172119 311.316833 939.130859 307.592896 z" stroke-linecap="round" />
</g>
<g transform="matrix(1 0 0 1 804.89 480.08)"  >
<path style="stroke: none; stroke-width: 1; stroke-dasharray: none; stroke-linecap: butt; stroke-dashoffset: 0; stroke-linejoin: miter; stroke-miterlimit: 4; fill: rgb(181,181,185); fill-rule: nonzero; opacity: 1;" vector-effect="non-scaling-stroke"  transform=" translate(-824.39, -313.55)" d="M 828.434937 307.07135 C 828.651489 310.153992 829.824036 313.585144 828.857422 316.236359 C 827.456848 320.07785 823.552246 320.757874 819.550659 319.357971 C 822.467041 314.962372 825.450989 311.016876 828.434937 307.07135 z" stroke-linecap="round" />
</g>
<g transform="matrix(1 0 0 1 802.57 372.86)"  >
<path style="stroke: none; stroke-width: 1; stroke-dasharray: none; stroke-linecap: butt; stroke-dashoffset: 0; stroke-linejoin: miter; stroke-miterlimit: 4; fill: rgb(16,15,14); fill-rule: nonzero; opacity: 1;" vector-effect="non-scaling-stroke"  transform=" translate(-822.07, -206.34)" d="M 828.153442 201.456757 C 825.293152 205.497742 822.348083 209.238449 819.179138 213.264648 C 818.015808 212.989914 817.076294 212.429672 815.990356 211.564911 C 818.871887 207.419754 821.899963 203.579117 825.037842 199.41806 C 826.121338 199.783905 827.09491 200.470184 828.153442 201.456757 z" stroke-linecap="round" />
</g>
<g transform="matrix(1 0 0 1 802.73 478.77)"  >
<path style="stroke: none; stroke-width: 1; stroke-dasharray: none; stroke-linecap: butt; stroke-dashoffset: 0; stroke-linejoin: miter; stroke-miterlimit: 4; fill: rgb(16,15,14); fill-rule: nonzero; opacity: 1;" vector-effect="non-scaling-stroke"  transform=" translate(-822.24, -312.24)" d="M 828.309265 306.749084 C 825.450989 311.016876 822.467041 314.962372 819.226196 319.156006 C 818.074402 318.836212 817.179565 318.268311 816.164185 317.399597 C 819.021973 313.284302 822.000183 309.469788 825.110962 305.325684 C 826.223511 305.472992 827.203552 305.949921 828.309265 306.749084 z" stroke-linecap="round" />
</g>
<g transform="matrix(1 0 0 1 913.53 373.01)"  >
<path style="stroke: none; stroke-width: 1; stroke-dasharray: none; stroke-linecap: butt; stroke-dashoffset: 0; stroke-linejoin: miter; stroke-miterlimit: 4; fill: rgb(13,12,12); fill-rule: nonzero; opacity: 1;" vector-effect="non-scaling-stroke"  transform=" translate(-933.03, -206.49)" d="M 939.092346 201.503204 C 936.159668 205.618896 933.155457 209.434158 930.031738 213.559067 C 928.969971 213.186127 928.027832 212.503555 926.959534 211.558319 C 929.852844 207.440048 932.872314 203.584442 936.011658 199.413239 C 937.094604 199.799332 938.057678 200.501053 939.092346 201.503204 z" stroke-linecap="round" />
</g>
<g transform="matrix(1 0 0 1 913.53 478.71)"  >
<path style="stroke: none; stroke-width: 1; stroke-dasharray: none; stroke-linecap: butt; stroke-dashoffset: 0; stroke-linejoin: miter; stroke-miterlimit: 4; fill: rgb(13,12,12); fill-rule: nonzero; opacity: 1;" vector-effect="non-scaling-stroke"  transform=" translate(-933.03, -312.19)" d="M 939.073853 307.284882 C 936.172119 311.316833 933.21344 315.040741 930.061462 319.076172 C 928.955078 318.831024 928.042053 318.274384 926.987915 317.421753 C 929.840759 313.288544 932.834595 309.451324 935.958679 305.295135 C 937.064941 305.643066 938.040894 306.309967 939.073853 307.284882 z" stroke-linecap="round" />
</g>
<g transform="matrix(1 0 0 1 992.02 767.03)"  >
<path style="stroke: none; stroke-width: 1; stroke-dasharray: none; stroke-linecap: butt; stroke-dashoffset: 0; stroke-linejoin: miter; stroke-miterlimit: 4; fill: rgb(236,154,51); fill-rule: nonzero; opacity: 1;" vector-effect="non-scaling-stroke"  transform=" translate(-1011.52, -600.51)" d="M 1028.886719 619.181885 C 1026.108887 619.891907 1023.703918 620.92572 1021.28656 620.955627 C 1008.152893 621.118103 995.016174 621.032837 981.513855 621.032837 C 981.513855 607.436279 981.513855 594.054688 981.513855 579.998962 C 985.790161 579.998962 990.055481 579.998901 994.320801 579.999023 C 1002.811096 579.999268 1011.302307 579.920166 1019.791443 580.019897 C 1030.339722 580.14386 1038.82019 586.289612 1040.873779 595.117981 C 1043.251587 605.340149 1039.166626 613.75061 1028.886719 619.181885 M 1021.497131 601.850525 C 1015.763184 601.850525 1010.029236 601.850525 1004.25647 601.850525 C 1004.25647 607.167297 1004.25647 611.743469 1004.25647 616.271851 C 1023.562988 619.535767 1036.557129 613.770264 1036.375732 601.850342 C 1031.75415 601.850342 1027.124268 601.850342 1021.497131 601.850525 z" stroke-linecap="round" />
</g>
<g transform="matrix(1 0 0 1 988.74 702.61)"  >
<path style="stroke: none; stroke-width: 1; stroke-dasharray: none; stroke-linecap: butt; stroke-dashoffset: 0; stroke-linejoin: miter; stroke-miterlimit: 4; fill: rgb(236,154,51); fill-rule: nonzero; opacity: 1;" vector-effect="non-scaling-stroke"  transform=" translate(-1008.24, -536.08)" d="M 981.162354 552.69751 C 981.150146 540.622986 981.150146 529.020142 981.150146 517.260681 C 994.606262 517.260681 1007.589111 516.475708 1020.424988 517.511963 C 1030.484131 518.323914 1036.168823 527.549011 1035.230469 538.348938 C 1034.381348 548.12262 1026.953735 555.022217 1016.921204 555.122437 C 1006.438965 555.227173 995.953674 555.222046 985.4729 555.05896 C 984.030701 555.036499 982.606934 553.828308 981.162354 552.69751 M 1024.688477 548.380981 C 1026.826416 545.692871 1028.964478 543.004761 1031.102417 540.316589 C 1030.7229 539.930481 1030.343506 539.544312 1029.963989 539.158203 C 1021.453308 539.158203 1012.942627 539.158203 1004.304443 539.158203 C 1004.304443 543.186707 1004.304443 546.905884 1004.304443 551.982727 C 1011.213623 550.874329 1017.635925 549.843994 1024.688477 548.380981 z" stroke-linecap="round" />
</g>
<g transform="matrix(1 0 0 1 93.44 389.8)"  >
<path style="stroke: none; stroke-width: 1; stroke-dasharray: none; stroke-linecap: butt; stroke-dashoffset: 0; stroke-linejoin: miter; stroke-miterlimit: 4; fill: rgb(248,225,235); fill-rule: nonzero; opacity: 1;" vector-effect="non-scaling-stroke"  transform=" translate(-112.95, -223.27)" d="M 77.886497 194.953903 C 79.328423 188.32605 83.726105 186.384689 89.555237 185.832901 C 99.67028 184.875381 109.020905 187.294632 118.025253 191.549347 C 130.176529 197.291 145.457794 209.040176 154.669235 219.60907 C 153.630859 222.004318 152.587601 224.410767 151.342239 227.283447 C 121.022697 225.294159 94.63533 233.014282 77.495598 260.916199 C 69.987701 248.023712 68.169914 217.648331 77.886497 194.953903 z" stroke-linecap="round" />
</g>
<g transform="matrix(1 0 0 1 98.05 438.91)"  >
<path style="stroke: none; stroke-width: 1; stroke-dasharray: none; stroke-linecap: butt; stroke-dashoffset: 0; stroke-linejoin: miter; stroke-miterlimit: 4; fill: rgb(248,225,236); fill-rule: nonzero; opacity: 1;" vector-effect="non-scaling-stroke"  transform=" translate(-117.54, -272.38)" d="M 125.600807 314.413391 C 104.774071 304.921967 89.740677 289.568268 80.054855 268.9664 C 79.337479 267.440552 79.823044 264.752289 80.724129 263.153992 C 90.589737 245.655243 105.831291 235.50029 125.397957 232.192093 C 133.82251 230.767731 142.51088 230.903778 150.711395 230.355515 C 152.528412 234.407837 153.920303 237.512009 155.37973 240.766815 C 134.980621 260.245819 120.102135 282.198334 126.29509 313.322144 C 125.914642 314.102081 125.757721 314.257721 125.600807 314.413391 z" stroke-linecap="round" />
</g>
<g transform="matrix(1 0 0 1 105.66 345.2)"  >
<path style="stroke: none; stroke-width: 1; stroke-dasharray: none; stroke-linecap: butt; stroke-dashoffset: 0; stroke-linejoin: miter; stroke-miterlimit: 4; fill: rgb(249,225,236); fill-rule: nonzero; opacity: 1;" vector-effect="non-scaling-stroke"  transform=" translate(-125.16, -178.68)" d="M 150.17926 209.815369 C 139.150711 199.804794 127.678215 191.094604 113.918587 185.887894 C 104.424637 182.295319 94.692474 180.725586 83.22464 183.3638 C 86.421707 178.733978 88.735779 174.897949 91.518089 171.438492 C 102.926704 157.253281 117.159149 146.927704 134.470474 141.137146 C 136.266876 140.536255 139.121262 140.974777 140.669006 142.076752 C 159.753311 155.664474 167.258255 174.874023 167.096161 197.671814 C 167.086716 199.000946 167.042206 200.330856 166.974396 201.658371 C 166.629532 208.410522 167.209686 215.736267 156.209106 216.496521 C 154.865891 214.99025 152.659256 212.515762 150.17926 209.815369 z" stroke-linecap="round" />
</g>
<g transform="matrix(1 0 0 1 189.96 444.18)"  >
<path style="stroke: none; stroke-width: 1; stroke-dasharray: none; stroke-linecap: butt; stroke-dashoffset: 0; stroke-linejoin: miter; stroke-miterlimit: 4; fill: rgb(248,225,236); fill-rule: nonzero; opacity: 1;" vector-effect="non-scaling-stroke"  transform=" translate(-209.46, -277.65)" d="M 222.905731 302.936523 C 217.29184 306.507263 211.920776 309.797302 206.666046 313.263733 C 204.132278 314.935181 201.985199 314.691254 199.400208 313.250061 C 184.565506 304.979156 176.437759 291.775146 172.730881 275.83252 C 170.456802 266.052155 169.66272 255.927658 168.289597 246.542389 C 172.760727 244.300766 175.966156 242.693695 179.598633 240.872543 C 197.058609 264.594696 221.274078 271.571655 250.629532 266.655823 C 244.266037 281.50589 235.019012 293.076904 222.905731 302.936523 z" stroke-linecap="round" />
</g>
<g transform="matrix(1 0 0 1 143.8 450.02)"  >
<path style="stroke: none; stroke-width: 1; stroke-dasharray: none; stroke-linecap: butt; stroke-dashoffset: 0; stroke-linejoin: miter; stroke-miterlimit: 4; fill: rgb(248,224,235); fill-rule: nonzero; opacity: 1;" vector-effect="non-scaling-stroke"  transform=" translate(-163.31, -283.5)" d="M 166.117355 259.731537 C 168.089081 276.794739 172.086182 292.665955 183.825012 305.334747 C 187.839172 309.66684 192.72757 313.188873 198.106674 317.852844 C 189.80954 319.5495 181.835831 321.738861 173.71637 322.711456 C 161.028015 324.231323 148.514572 322.54715 136.243469 318.883881 C 132.630371 317.805237 130.807007 315.817261 129.990723 312.150269 C 126.315094 295.63797 129.563538 280.373657 138.56839 266.398346 C 142.594971 260.149139 147.594971 254.491943 152.462555 248.832108 C 155.80658 244.943771 159.452148 240.628052 166.092133 246.883499 C 166.092133 250.027893 166.092133 254.646393 166.117355 259.731537 z" stroke-linecap="round" />
</g>
<g transform="matrix(1 0 0 1 200.72 398.88)"  >
<path style="stroke: none; stroke-width: 1; stroke-dasharray: none; stroke-linecap: butt; stroke-dashoffset: 0; stroke-linejoin: miter; stroke-miterlimit: 4; fill: rgb(248,224,235); fill-rule: nonzero; opacity: 1;" vector-effect="non-scaling-stroke"  transform=" translate(-220.22, -232.36)" d="M 207.296127 228.357147 C 224.648285 221.80925 239.122406 211.22644 253.677582 200.107346 C 260.090607 220.493866 260.075562 240.357483 253.173019 260.138123 C 252.784195 261.252411 251.427231 262.591217 250.320175 262.810059 C 224.574203 267.899017 202.127716 262.619293 184.876648 241.533493 C 181.479691 237.381454 181.542572 237.330002 182.844269 233.206268 C 191.212036 231.574997 199.073639 230.042404 207.296127 228.357147 z" stroke-linecap="round" />
</g>
<g transform="matrix(1 0 0 1 154.78 342.48)"  >
<path style="stroke: none; stroke-width: 1; stroke-dasharray: none; stroke-linecap: butt; stroke-dashoffset: 0; stroke-linejoin: miter; stroke-miterlimit: 4; fill: rgb(248,224,235); fill-rule: nonzero; opacity: 1;" vector-effect="non-scaling-stroke"  transform=" translate(-174.29, -175.96)" d="M 168.17865 175.87735 C 164.192291 160.491837 155.71666 148.558273 142.764832 138.718063 C 156.182602 135.327606 168.826706 134.972015 181.402802 137.545822 C 188.495789 138.997467 195.378143 141.571304 202.244141 143.959473 C 203.597336 144.430145 205.289749 146.298981 205.39328 147.634094 C 207.015457 168.550293 204.325073 188.446198 190.595673 205.442505 C 188.933716 207.499939 186.94104 209.300781 185.023666 211.139206 C 180.465591 215.509598 175.689041 218.796875 169.352402 212.749512 C 171.169205 201.170517 171.491974 188.6642 168.17865 175.87735 z" stroke-linecap="round" />
</g>
<g transform="matrix(1 0 0 1 196.93 354.33)"  >
<path style="stroke: none; stroke-width: 1; stroke-dasharray: none; stroke-linecap: butt; stroke-dashoffset: 0; stroke-linejoin: miter; stroke-miterlimit: 4; fill: rgb(248,224,235); fill-rule: nonzero; opacity: 1;" vector-effect="non-scaling-stroke"  transform=" translate(-216.43, -187.81)" d="M 216.365631 220.414429 C 205.772949 225.466751 195.414001 229.944107 183.69809 227.861435 C 182.462326 224.974579 181.306778 222.275116 180.117767 219.497482 C 205.673523 202.111267 210.411469 176.200577 209.236176 147.226257 C 229.634781 158.560623 243.715851 174.778748 252.740555 197.33429 C 240.70784 204.967377 228.693909 212.588531 216.365631 220.414429 z" stroke-linecap="round" />
</g>
<g transform="matrix(1 0 0 1 147.96 396.24)"  >
<path style="stroke: none; stroke-width: 1; stroke-dasharray: none; stroke-linecap: butt; stroke-dashoffset: 0; stroke-linejoin: miter; stroke-miterlimit: 4; fill: rgb(145,149,154); fill-rule: nonzero; opacity: 1;" vector-effect="non-scaling-stroke"  transform=" translate(-167.46, -229.72)" d="M 169.316483 217.616791 C 176.446609 219.838486 180.378494 224.973007 179.648361 230.686264 C 178.872345 236.758514 173.931244 241.482025 168.014191 241.808105 C 162.279831 242.1241 157.12384 238.18541 155.581711 232.310822 C 153.500839 224.383942 159.8479 217.366394 169.316483 217.616791 z" stroke-linecap="round" />
</g>
<g transform="matrix(1 0 0 1 106.56 480.7)"  >
<path style="stroke: none; stroke-width: 1; stroke-dasharray: none; stroke-linecap: butt; stroke-dashoffset: 0; stroke-linejoin: miter; stroke-miterlimit: 4; fill: rgb(248,225,236); fill-rule: nonzero; opacity: 1;" vector-effect="non-scaling-stroke"  transform=" translate(-126.06, -314.17)" d="M 126.32386 313.731354 C 126.377861 313.943085 126.179558 314.369873 125.791031 314.605042 C 125.757721 314.257721 125.914642 314.102081 126.32386 313.731354 z" stroke-linecap="round" />
</g>
</svg>