<?xml version="1.0" encoding="iso-8859-1"?>
<svg fill="#000000" height="16px" width="16px" version="1.1" id="Layer_1" xmlns="http://www.w3.org/2000/svg" xmlns:xlink="http://www.w3.org/1999/xlink" 
	 viewBox="0 0 511.998 511.998" xml:space="preserve">
<g>
	<g>
		<path d="M408.185,0H103.813C91.846,0,82.109,9.737,82.109,21.704v3.337c0,11.968,9.737,21.704,21.704,21.704h78.322v45.779
			c-8.695,3.077-14.95,11.358-14.95,21.092v3.914c0,9.232,5.618,17.173,13.612,20.594l39.25,87.99
			c0.887,1.989,2.522,3.479,4.48,4.243v10.52c-3.032,1.18-5.184,4.119-5.184,7.569s2.153,6.389,5.184,7.569v7.368
			c0,8.961,3.771,17.053,9.803,22.79v32.963l-0.074,0.023c-4.287,1.328-6.686,5.88-5.358,10.166c0.832,2.684,2.93,4.614,5.432,5.367
			v17.961l-0.074,0.023c-4.287,1.328-6.686,5.88-5.358,10.166c0.831,2.684,2.93,4.614,5.432,5.367v17.964l-0.075,0.023
			c-4.286,1.328-6.685,5.88-5.356,10.167c0.832,2.684,2.93,4.614,5.432,5.366v17.962l-0.074,0.023
			c-4.287,1.328-6.686,5.88-5.358,10.166c0.831,2.684,2.93,4.614,5.432,5.367v17.962l-0.074,0.023
			c-4.287,1.328-6.686,5.88-5.358,10.166c0.832,2.684,2.93,4.614,5.432,5.367v21.563c0,11.948,9.721,21.669,21.669,21.669
			c11.948,0,21.669-9.721,21.669-21.669v-33.678c3.406-1.783,5.166-5.79,3.988-9.594c-0.665-2.148-2.142-3.821-3.988-4.789v-19.134
			c3.406-1.783,5.166-5.79,3.988-9.594c-0.665-2.148-2.141-3.822-3.988-4.791v-19.135c3.406-1.783,5.166-5.791,3.988-9.595
			c-0.666-2.149-2.141-3.823-3.988-4.791v-19.132c3.406-1.783,5.166-5.791,3.988-9.594c-0.665-2.148-2.141-3.821-3.988-4.79v-19.134
			c3.406-1.783,5.166-5.791,3.988-9.594c-0.665-2.148-2.142-3.822-3.988-4.791v-22.02c6.031-5.737,9.803-13.829,9.803-22.79v-7.368
			c3.033-1.18,5.184-4.119,5.184-7.569s-2.153-6.389-5.184-7.569v-10.52c1.958-0.763,3.592-2.252,4.48-4.243l39.25-87.99
			c7.995-3.42,13.612-11.362,13.612-20.594v-3.914c0-9.735-6.256-18.015-14.95-21.092V46.746h12.535
			c4.489,0,8.126-3.637,8.126-8.126s-3.637-8.126-8.126-8.126h-20.661H190.261h-86.448c-3.007,0-5.453-2.446-5.453-5.453v-3.337
			c0-3.007,2.446-5.453,5.453-5.453h304.372c3.006,0,5.453,2.446,5.453,5.453v3.337c0,3.007-2.446,5.453-5.453,5.453h-38.339
			c-4.489,0-8.126,3.637-8.126,8.126s3.637,8.126,8.126,8.126h38.339c11.968,0,21.704-9.737,21.704-21.704v-3.337
			C429.889,9.737,420.152,0,408.185,0z M261.416,490.331c0,2.987-2.43,5.417-5.417,5.417c-2.987,0-5.417-2.43-5.417-5.417V465.19
			l10.834-3.356V490.331z M261.416,444.822l-10.834,3.356v-16.506l10.834-3.355V444.822z M261.416,411.304l-10.834,3.355v-16.506
			l10.834-3.356V411.304z M261.416,377.784l-10.834,3.356v-16.507l10.834-3.355V377.784z M261.416,344.264l-10.834,3.355v-16.504
			l10.834-3.356V344.264z M261.416,310.747l-10.834,3.356v-19.716c0.064,0.011,0.129,0.014,0.193,0.025
			c0.782,0.131,1.573,0.234,2.374,0.307c0.106,0.01,0.212,0.016,0.319,0.024c0.836,0.067,1.678,0.11,2.531,0.11
			c0.853,0,1.696-0.044,2.531-0.11c0.106-0.009,0.212-0.015,0.319-0.024c0.801-0.073,1.592-0.175,2.374-0.307
			c0.066-0.011,0.132-0.014,0.195-0.025V310.747z M271.22,263.384h-0.001c0,5.105-2.536,9.622-6.405,12.384
			c-0.285,0.204-0.576,0.392-0.872,0.574c-0.075,0.046-0.15,0.092-0.225,0.137c-0.274,0.162-0.551,0.316-0.833,0.462
			c-0.114,0.057-0.23,0.112-0.345,0.167c-0.265,0.128-0.531,0.255-0.802,0.366c-0.332,0.135-0.668,0.258-1.011,0.371
			c-0.206,0.068-0.415,0.125-0.623,0.183c-0.271,0.076-0.544,0.151-0.821,0.211c-0.172,0.038-0.347,0.07-0.521,0.103
			c-0.301,0.055-0.607,0.102-0.913,0.14c-0.151,0.018-0.301,0.039-0.452,0.053c-0.46,0.042-0.924,0.07-1.395,0.07
			c-0.471,0-0.935-0.028-1.395-0.07c-0.152-0.014-0.301-0.035-0.452-0.053c-0.308-0.037-0.611-0.085-0.913-0.14
			c-0.174-0.032-0.35-0.064-0.523-0.103c-0.275-0.061-0.545-0.134-0.815-0.21c-0.263-0.075-0.524-0.153-0.783-0.242
			c-0.286-0.098-0.572-0.198-0.851-0.312c-0.281-0.115-0.556-0.246-0.83-0.379c-0.104-0.05-0.209-0.099-0.312-0.151
			c-0.293-0.149-0.58-0.309-0.862-0.478c-0.061-0.036-0.121-0.074-0.181-0.111c-0.305-0.187-0.607-0.383-0.901-0.594
			c-0.003-0.002-0.006-0.003-0.01-0.005c-3.861-2.763-6.391-7.274-6.391-12.373v-6.81h30.44V263.384z M240.779,240.321v-9.39h30.44
			v9.39H240.779z M198.387,46.746h115.225v44.482H198.387V46.746z M183.437,113.618c0-3.385,2.754-6.139,6.139-6.139h0.686h131.476
			h0.686c3.385,0,6.139,2.754,6.139,6.139v3.914c0,3.385-2.754,6.139-6.139,6.139h-25.508c-4.489,0-8.126,3.637-8.126,8.126
			s3.637,8.126,8.126,8.126h15.689l-33.349,74.757h-46.514l-33.348-74.757h70.435c4.489,0,8.126-3.637,8.126-8.126
			s-3.637-8.126-8.126-8.126h-80.253c-3.385,0-6.139-2.754-6.139-6.139V113.618z"/>
	</g>
</g>
</svg>